<?xml version="1.0" standalone="no"?>
<!DOCTYPE svg PUBLIC "-//W3C//DTD SVG 1.1//EN" "http://www.w3.org/Graphics/SVG/1.1/DTD/svg11.dtd">
<svg width="80mm" height="48mm" viewBox="-40 -24 80 48" xmlns="http://www.w3.org/2000/svg" version="1.1">
<title>OpenSCAD Model</title>
<path d="
M 2.51161,23.9526 L 5.01332,23.8107 L 7.49524,23.5749 L 9.94759,23.246 L 12.3607,22.8253 L 14.725,22.3146
 L 17.0312,21.7158 L 19.2701,21.0314 L 21.4331,20.2639 L 23.5114,19.4164 L 25.4969,18.4923 L 27.3819,17.4952
 L 29.1587,16.4291 L 30.8205,15.2982 L 32.3607,14.1068 L 33.7731,12.8598 L 35.0523,11.5621 L 36.1931,10.2187
 L 37.1911,8.83498 L 38.0423,7.4164 L 38.7433,5.96855 L 39.2915,4.49715 L 39.6846,3.008 L 39.9211,1.50696
 L 40,-0 L 39.9211,-1.50696 L 39.6846,-3.008 L 39.2915,-4.49715 L 38.7433,-5.96855 L 38.0423,-7.4164
 L 37.1911,-8.83498 L 36.1931,-10.2187 L 35.0523,-11.5621 L 33.7731,-12.8598 L 32.3607,-14.1068 L 30.8205,-15.2982
 L 29.1587,-16.4291 L 27.3819,-17.4952 L 25.4969,-18.4923 L 23.5114,-19.4164 L 21.4331,-20.2639 L 19.2701,-21.0314
 L 17.0312,-21.7158 L 14.725,-22.3146 L 12.3607,-22.8253 L 9.94759,-23.246 L 7.49524,-23.5749 L 5.01332,-23.8107
 L 2.51161,-23.9526 L 0,-24 L -2.51161,-23.9526 L -5.01332,-23.8107 L -7.49524,-23.5749 L -9.94759,-23.246
 L -12.3607,-22.8253 L -14.725,-22.3146 L -17.0312,-21.7158 L -19.2701,-21.0314 L -21.4331,-20.2639 L -23.5114,-19.4164
 L -25.4969,-18.4923 L -27.3819,-17.4952 L -29.1587,-16.4291 L -30.8205,-15.2982 L -32.3607,-14.1068 L -33.7731,-12.8598
 L -35.0523,-11.5621 L -36.1931,-10.2187 L -37.1911,-8.83498 L -38.0423,-7.4164 L -38.7433,-5.96855 L -39.2915,-4.49715
 L -39.6846,-3.008 L -39.9211,-1.50696 L -40,-0 L -39.9211,1.50696 L -39.6846,3.008 L -39.2915,4.49715
 L -38.7433,5.96855 L -38.0423,7.4164 L -37.1911,8.83498 L -36.1931,10.2187 L -35.0523,11.5621 L -33.7731,12.8598
 L -32.3607,14.1068 L -30.8205,15.2982 L -29.1587,16.4291 L -27.3819,17.4952 L -25.4969,18.4923 L -23.5114,19.4164
 L -21.4331,20.2639 L -19.2701,21.0314 L -17.0312,21.7158 L -14.725,22.3146 L -12.3607,22.8253 L -9.94759,23.246
 L -7.49524,23.5749 L -5.01332,23.8107 L -2.51161,23.9526 L 0,24 z
M 11,14 L 10.759,14.0382 L 10.5,13.9971 L 10.277,14.0325 L 10,13.9886 L 9.79498,14.021
 L 9.5,13.9743 L 9.31082,14.0043 L 9.30901,14.0034 L 9,13.9544 L 8.81924,13.983 L 8.80901,13.9778
 L 8.5,13.9289 L 8.32759,13.9562 L 8.30901,13.9467 L 8,13.8978 L 7.83586,13.9238 L 7.80901,13.9101
 L 7.5,13.8611 L 7.34401,13.8858 L 7.30901,13.868 L 7,13.8191 L 6.85205,13.8425 L 6.80901,13.8206
 L 6.5,13.7716 L 6.35995,13.7938 L 6.30901,13.7679 L 6,13.7189 L 5.86771,13.7399 L 5.80901,13.71
 L 5.5,13.661 L 5.37527,13.6808 L 5.30901,13.647 L 5,13.5981 L 4.88268,13.6167 L 4.80901,13.5791
 L 4.5,13.5302 L 4.38989,13.5476 L 4.30901,13.5064 L 4,13.4574 L 3.8969,13.4738 L 3.80901,13.429
 L 3.5,13.3801 L 3.40367,13.3953 L 3.30901,13.3471 L 3,13.2981 L 2.91023,13.3123 L 2.80901,13.2608
 L 2.5,13.2118 L 2.41653,13.2251 L 2.30901,13.1703 L 2,13.1213 L 1.92259,13.1336 L 1.80901,13.0757
 L 1.5,13.0268 L 1.42836,13.0381 L 1.30901,12.9773 L 1,12.9284 L 0.933868,12.9388 L 0.809006,12.8752
 L 0.5,12.8263 L 0.439056,12.8359 L 0.309006,12.7697 L 0,12.7207 L -0.0560303,12.7296 L -0.190994,12.6608
 L -0.5,12.6119 L -0.551437,12.62 L -0.690994,12.5489 L -1,12.5 L -1.04716,12.5075 L -1.19099,12.4342
 L -1.5,12.3852 L -1.54321,12.3921 L -1.69099,12.3168 L -2,12.2679 L -2.0396,12.2741 L -2.19099,12.197
 L -2.5,12.148 L -2.53635,12.1538 L -2.69099,12.075 L -3,12.026 L -3.03343,12.0313 L -3.19099,11.9511
 L -3.5,11.9021 L -3.53084,11.907 L -3.69099,11.8254 L -4,11.7765 L -4.02864,11.781 L -4.19099,11.6983
 L -4.5,11.6493 L -4.52678,11.6536 L -4.69099,11.5699 L -5,11.521 L -5.0253,11.525 L -5.19099,11.4405
 L -5.5,11.3916 L -5.52417,11.3954 L -5.69099,11.3104 L -6,11.2615 L -6.02344,11.2652 L -6.19099,11.1798
 L -6.5,11.1309 L -6.52307,11.1345 L -6.69099,11.049 L -7,11 L -7.02307,11.0036 L -7.19099,10.9181
 L -7.5,10.8692 L -7.52342,10.8729 L -7.69099,10.7875 L -8,10.7385 L -8.02417,10.7424 L -8.19099,10.6574
 L -8.5,10.6084 L -8.52528,10.6124 L -8.69099,10.528 L -9,10.4791 L -9.02676,10.4833 L -9.19099,10.3996
 L -9.5,10.3507 L -9.52863,10.3552 L -9.69099,10.2725 L -10,10.2236 L -10.0308,10.2284 L -10.191,10.1468
 L -10.5,10.0979 L -10.5334,10.1032 L -10.691,10.0229 L -11,9.97395 L -11.0363,9.97971 L -11.191,9.90089
 L -11.5,9.85196 L -11.5396,9.85823 L -11.691,9.7811 L -12,9.73215 L -12.0432,9.739 L -12.191,9.66371
 L -12.5,9.61476 L -12.5472,9.62224 L -12.691,9.54895 L -13,9.5 L -13.0515,9.50815 L -13.191,9.43706
 L -13.5,9.38811 L -13.556,9.39699 L -13.691,9.32822 L -14,9.27928 L -14.0609,9.28893 L -14.191,9.22267
 L -14.5,9.17372 L -14.5661,9.1842 L -14.691,9.12059 L -15,9.07164 L -15.0717,9.08299 L -15.191,9.02219
 L -15.5,8.97324 L -15.5774,8.9855 L -15.691,8.92763 L -16,8.87869 L -16.0835,8.89191 L -16.191,8.83711
 L -16.5,8.78818 L -16.5898,8.8024 L -16.691,8.75082 L -17,8.70187 L -17.0963,8.71713 L -17.191,8.66888
 L -17.5,8.61995 L -17.6031,8.63628 L -17.691,8.59149 L -18,8.54256 L -18.1101,8.56 L -18.191,8.51878
 L -18.5,8.46983 L -18.6173,8.48842 L -18.691,8.45088 L -19,8.40193 L -19.1247,8.42169 L -19.191,8.38792
 L -19.5,8.33897 L -19.6323,8.35992 L -19.691,8.33003 L -20,8.28108 L -20.1401,8.30327 L -20.191,8.27731
 L -20.5,8.22836 L -20.648,8.2518 L -20.691,8.22987 L -21,8.18092 L -21.156,8.20563 L -21.191,8.18781
 L -21.5,8.13885 L -21.6641,8.16486 L -21.691,8.15117 L -22,8.10223 L -22.1724,8.12953 L -22.191,8.12006
 L -22.5,8.07112 L -22.6808,8.09975 L -22.691,8.09453 L -23,8.04558 L -23.1892,8.07555 L -23.191,8.07462
 L -23.5,8.02568 L -23.705,8.05815 L -24,8.01143 L -24.223,8.04674 L -24.5,8.00287 L -24.741,8.04103
 L -25,8 L -25.259,8.04103 L -25.5,8.00287 L -25.777,8.04674 L -26,8.01143 L -26.13,8.03203
 L -26.6296,6.92197 L -27.1203,5.57065 L -27.504,4.19733 L -27.7792,2.80745 L -27.9447,1.40649 L -27.9607,1
 L -17.5,1 L -17.5,-1 L -27.9607,-1 L -27.9447,-1.40649 L -27.7792,-2.80745 L -27.504,-4.19733
 L -27.1203,-5.57065 L -26.6296,-6.92197 L -26.0337,-8.24599 L -25.3351,-9.53745 L -24.5366,-10.7913 L -23.6412,-12.0025
 L -22.6525,-13.1664 L -21.5744,-14.2783 L -20.4111,-15.3338 L -19.1673,-16.3289 L -17.8479,-17.2595 L -16.458,-18.122
 L -15.0031,-18.9129 L -13.4891,-19.6293 L -11.9218,-20.2681 L -10.3075,-20.827 L -8.65247,-21.3037 L -6.9633,-21.6963
 L -5.24667,-22.0032 L -3.50932,-22.2234 L -1.75813,-22.3558 L -1,-22.3748 L -1,-15 L 1,-15
 L 1,-22.3748 L 1.75813,-22.3558 L 3.50932,-22.2234 L 5.24667,-22.0032 L 6.9633,-21.6963 L 8.65247,-21.3037
 L 10.3075,-20.827 L 11.9218,-20.2681 L 13.4891,-19.6293 L 15.0031,-18.9129 L 16.458,-18.122 L 17.8479,-17.2595
 L 19.1673,-16.3289 L 20.4111,-15.3338 L 21.5744,-14.2783 L 22.6525,-13.1664 L 23.6412,-12.0025 L 24.5366,-10.7913
 L 25.3351,-9.53745 L 26.0337,-8.24599 L 26.6296,-6.92197 L 27.1203,-5.57065 L 27.504,-4.19733 L 27.7792,-2.80745
 L 27.9447,-1.40649 L 27.9607,-1 L 17.5,-1 L 17.5,1 L 27.9607,1 L 27.9447,1.40649
 L 27.7792,2.80745 L 27.504,4.19733 L 27.1203,5.57065 L 26.6296,6.92197 L 26.0337,8.24599 L 25.3351,9.53745
 L 24.5366,10.7913 L 23.6412,12.0025 L 23.2874,12.4189 L 23.191,12.4342 L 23.0471,12.5075 L 23,12.5
 L 22.691,12.5489 L 22.5514,12.62 L 22.5,12.6119 L 22.191,12.6608 L 22.056,12.7296 L 22,12.7207
 L 21.691,12.7697 L 21.5609,12.8359 L 21.5,12.8263 L 21.191,12.8752 L 21.0661,12.9388 L 21,12.9284
 L 20.691,12.9773 L 20.5716,13.0381 L 20.5,13.0268 L 20.191,13.0757 L 20.0774,13.1336 L 20,13.1213
 L 19.691,13.1703 L 19.5835,13.225 L 19.5,13.2118 L 19.191,13.2608 L 19.0898,13.3123 L 19,13.2981
 L 18.691,13.3471 L 18.5963,13.3953 L 18.5,13.3801 L 18.191,13.429 L 18.1031,13.4738 L 18,13.4574
 L 17.691,13.5064 L 17.6101,13.5476 L 17.5,13.5302 L 17.191,13.5791 L 17.1173,13.6167 L 17,13.5981
 L 16.691,13.647 L 16.6247,13.6808 L 16.5,13.661 L 16.191,13.71 L 16.1323,13.7399 L 16,13.7189
 L 15.691,13.7679 L 15.64,13.7938 L 15.5,13.7716 L 15.191,13.8206 L 15.1479,13.8425 L 15,13.8191
 L 14.691,13.868 L 14.656,13.8858 L 14.5,13.8611 L 14.191,13.9101 L 14.1641,13.9238 L 14,13.8978
 L 13.691,13.9467 L 13.6724,13.9562 L 13.5,13.9289 L 13.191,13.9778 L 13.1807,13.983 L 13,13.9544
 L 12.691,14.0034 L 12.6892,14.0043 L 12.5,13.9743 L 12.205,14.021 L 12,13.9886 L 11.723,14.0325
 L 11.5,13.9971 L 11.241,14.0382 z
M -6.31203,6.32812 L -6.68703,6.32812 L -6.75391,6.3275 L -6.81993,6.32565 L -6.88509,6.32257 L -6.94939,6.31827
 L -7.01282,6.31271 L -7.07539,6.30594 L -7.1371,6.29793 L -7.19794,6.2887 L -7.25792,6.27823 L -7.31705,6.26653
 L -7.37531,6.25359 L -7.43269,6.23941 L -7.48923,6.22401 L -7.54439,6.20674 L -7.59769,6.18701 L -7.64914,6.16481
 L -7.69875,6.14015 L -7.74652,6.11302 L -7.79242,6.08344 L -7.83649,6.05138 L -7.87871,6.01686 L -7.91908,5.97989
 L -7.9576,5.94044 L -7.99428,5.89853 L -8.0291,5.85416 L -8.06207,5.80731 L -8.0929,5.75737 L -8.12126,5.70374
 L -8.14714,5.64641 L -8.17056,5.58539 L -8.19153,5.52066 L -8.21002,5.45224 L -8.22604,5.38013 L -8.23961,5.30431
 L -8.2507,5.22481 L -8.25934,5.1416 L -8.2655,5.0547 L -8.2692,4.96411 L -8.27043,4.86981 L -8.27043,-4.58856
 L -1.07442,6.21495 L -1.12474,6.23047 L -1.18071,6.24606 L -1.23766,6.2603 L -1.29561,6.27319 L -1.35452,6.28471
 L -1.41444,6.29489 L -1.47534,6.30371 L -1.53723,6.31116 L -1.6001,6.31726 L -1.66396,6.32202 L -1.72881,6.32541
 L -1.79465,6.32744 L -1.86147,6.32812 L -2.27817,6.32812 L -2.27817,7.26562 L 4.24263,7.26562 L 4.59383,7.26007
 L 4.93593,7.24342 L 5.26889,7.2157 L 5.59274,7.17686 L 5.90747,7.12694 L 6.21307,7.06592 L 6.50955,6.9938
 L 6.79692,6.91058 L 7.07515,6.81628 L 7.34427,6.71088 L 7.60425,6.59439 L 7.85512,6.4668 L 8.09686,6.32812
 L 8.32956,6.17944 L 8.55324,6.02191 L 8.76793,5.85548 L 8.9736,5.68019 L 9.17029,5.49602 L 9.35797,5.30296
 L 9.53667,5.10104 L 9.70634,4.89024 L 9.86703,4.67058 L 10.0187,4.44202 L 10.1614,4.20459 L 10.2951,3.9583
 L 10.4198,3.70312 L 10.5353,3.44005 L 10.6416,3.17007 L 10.7387,2.8932 L 10.8266,2.60942 L 10.9051,2.31874
 L 10.9745,2.02116 L 11.0346,1.71667 L 11.0854,1.40527 L 11.127,1.08699 L 11.1594,0.76178 L 11.1825,0.429688
 L 11.1964,0.090683 L 11.201,-0.255219 L 11.1961,-0.616287 L 11.1815,-0.968719 L 11.1572,-1.31252 L 11.1231,-1.64769
 L 11.0792,-1.97424 L 11.0257,-2.29216 L 10.9624,-2.60144 L 10.8893,-2.9021 L 10.8066,-3.19414 L 10.7141,-3.47754
 L 10.6118,-3.7523 L 10.4998,-4.01845 L 10.3781,-4.27597 L 10.2471,-4.52444 L 10.1074,-4.76343 L 9.95888,-4.99292
 L 9.80164,-5.21291 L 9.63565,-5.42342 L 9.46091,-5.62442 L 9.27742,-5.81593 L 9.08516,-5.99796 L 8.88416,-6.17049
 L 8.67441,-6.33353 L 8.4559,-6.48706 L 8.22864,-6.63112 L 7.99261,-6.76567 L 7.74855,-6.89049 L 7.49709,-7.00531
 L 7.23822,-7.11015 L 6.97195,-7.20502 L 6.69829,-7.28989 L 6.41722,-7.36478 L 6.12877,-7.42969 L 5.8329,-7.4846
 L 5.52965,-7.52954 L 5.21898,-7.56448 L 4.90092,-7.58945 L 4.57547,-7.60443 L 4.24263,-7.60942 L -2.27817,-7.60942
 L -2.27817,-6.67192 L -1.90317,-6.67192 L -1.83629,-6.6713 L -1.77026,-6.66945 L -1.70511,-6.66637 L -1.64082,-6.66205
 L -1.57739,-6.65649 L -1.51483,-6.6497 L -1.45314,-6.64169 L -1.3923,-6.63243 L -1.33234,-6.62195 L -1.27324,-6.61023
 L -1.215,-6.59727 L -1.15762,-6.58308 L -1.10112,-6.56767 L -1.04588,-6.55054 L -0.992371,-6.53119 L -0.940582,-6.50963
 L -0.890533,-6.48584 L -0.842209,-6.45984 L -0.795609,-6.43159 L -0.750732,-6.40115 L -0.707581,-6.36848 L -0.666168,-6.33359
 L -0.62648,-6.29648 L -0.588516,-6.25714 L -0.552277,-6.21559 L -0.517761,-6.17181 L -0.485397,-6.12523 L -0.455612,-6.0752
 L -0.428421,-6.0217 L -0.403809,-5.96475 L -0.38179,-5.90436 L -0.362366,-5.8405 L -0.345535,-5.77319 L -0.331284,-5.70244
 L -0.319641,-5.62823 L -0.310577,-5.55057 L -0.304092,-5.46945 L -0.300217,-5.38489 L -0.29892,-5.29688 L -0.29892,3.33623
 L -7.56198,-7.60942 L -11.6037,-7.60942 L -11.6037,-6.67192 L -11.2287,-6.67192 L -11.1649,-6.67136 L -11.1017,-6.66969
 L -11.0392,-6.66693 L -10.9772,-6.66304 L -10.9159,-6.65805 L -10.8552,-6.65195 L -10.7951,-6.64473 L -10.7356,-6.63641
 L -10.6768,-6.62698 L -10.6185,-6.61644 L -10.5609,-6.6048 L -10.5039,-6.59204 L -10.4475,-6.57817 L -10.3922,-6.56258
 L -10.3385,-6.54463 L -10.2864,-6.52435 L -10.2359,-6.50172 L -10.1871,-6.47676 L -10.1398,-6.44945 L -10.0941,-6.4198
 L -10.05,-6.3878 L -10.0076,-6.35345 L -9.96667,-6.31677 L -9.92741,-6.27776 L -9.88974,-6.23637 L -9.85368,-6.19267
 L -9.81978,-6.14595 L -9.78857,-6.09555 L -9.7601,-6.04144 L -9.73433,-5.98363 L -9.71127,-5.92212 L -9.69093,-5.8569
 L -9.67331,-5.78799 L -9.65839,-5.71539 L -9.64618,-5.63908 L -9.63669,-5.55908 L -9.6299,-5.47537 L -9.62584,-5.38797
 L -9.62448,-5.29688 L -9.62448,4.86981 L -9.62578,4.96411 L -9.62965,5.0547 L -9.63614,5.1416 L -9.6452,5.22481
 L -9.65685,5.30431 L -9.6711,5.38013 L -9.68793,5.45224 L -9.70735,5.52066 L -9.72937,5.58539 L -9.75398,5.64641
 L -9.78117,5.70374 L -9.81096,5.75737 L -9.84332,5.80731 L -9.87784,5.85416 L -9.91408,5.89853 L -9.95204,5.94044
 L -9.99173,5.97989 L -10.0331,6.01686 L -10.0763,6.05138 L -10.1212,6.08344 L -10.1678,6.11302 L -10.2161,6.14015
 L -10.2661,6.16481 L -10.3179,6.18701 L -10.3714,6.20674 L -10.4267,6.22401 L -10.4834,6.23941 L -10.5415,6.25359
 L -10.601,6.26653 L -10.6618,6.27823 L -10.724,6.2887 L -10.7876,6.29793 L -10.8525,6.30594 L -10.9187,6.31271
 L -10.9864,6.31827 L -11.0553,6.32257 L -11.1257,6.32565 L -11.1974,6.3275 L -11.2704,6.32812 L -11.6037,6.32812
 L -11.6037,7.26562 L -6.31203,7.26562 z
M 2.11774,6.14062 L 2.11774,-6.50526 L 3.78438,-6.50526 L 4.02481,-6.50101 L 4.25897,-6.48825 L 4.48683,-6.467
 L 4.70839,-6.43721 L 4.92368,-6.39894 L 5.13269,-6.35216 L 5.3354,-6.29686 L 5.53185,-6.23306 L 5.72198,-6.16075
 L 5.90585,-6.07994 L 6.08342,-5.99063 L 6.25471,-5.89279 L 6.41972,-5.78647 L 6.57855,-5.67194 L 6.73135,-5.54951
 L 6.87811,-5.41922 L 7.01884,-5.28102 L 7.15352,-5.13493 L 7.28215,-4.98096 L 7.40475,-4.81911 L 7.5213,-4.64935
 L 7.63182,-4.47171 L 7.7363,-4.28618 L 7.83473,-4.09277 L 7.92712,-3.89146 L 8.01347,-3.68227 L 8.0936,-3.46524
 L 8.16731,-3.24046 L 8.23462,-3.0079 L 8.29552,-2.76758 L 8.34999,-2.5195 L 8.39807,-2.26364 L 8.43974,-2.00003
 L 8.47499,-1.72864 L 8.50385,-1.44949 L 8.52628,-1.16257 L 8.5423,-0.867889 L 8.55191,-0.56543 L 8.55511,-0.255219
 L 8.55191,0.0552368 L 8.5423,0.358429 L 8.52628,0.654343 L 8.50385,0.942978 L 8.47499,1.22437 L 8.43974,1.49846
 L 8.39807,1.76529 L 8.34999,2.02484 L 8.29552,2.27711 L 8.23462,2.52213 L 8.16731,2.75986 L 8.0936,2.99033
 L 8.01347,3.21352 L 7.92712,3.42906 L 7.83473,3.6366 L 7.7363,3.83612 L 7.63182,4.02763 L 7.5213,4.21112
 L 7.40475,4.38661 L 7.28215,4.55408 L 7.15352,4.71353 L 7.01884,4.86497 L 6.87811,5.00841 L 6.73135,5.14383
 L 6.57855,5.27122 L 6.41972,5.39062 L 6.25459,5.50157 L 6.08293,5.60364 L 5.90474,5.69682 L 5.72002,5.78114
 L 5.52875,5.8566 L 5.33096,5.92316 L 5.12663,5.98085 L 4.91579,6.02966 L 4.69839,6.06961 L 4.47449,6.10068
 L 4.24403,6.12286 L 4.00705,6.13618 L 3.76353,6.14062 z
M -37.9476,-1 L -37.925,-1.43161 L -37.7003,-2.85759 L -37.3269,-4.27229 L -36.8062,-5.67012 L -36.1401,-7.04558
 L -35.3315,-8.39323 L -34.3834,-9.70776 L -33.2997,-10.984 L -32.0845,-12.2168 L -30.7426,-13.4015 L -29.2795,-14.5333
 L -27.7008,-15.6077 L -26.0128,-16.6205 L -24.2221,-17.5677 L -22.3358,-18.4456 L -20.3614,-19.2507 L -18.3066,-19.9798
 L -16.1796,-20.6301 L -14.1344,-21.1611 L -14.4526,-21.0314 L -16.0748,-20.2639 L -17.6335,-19.4164 L -19.1227,-18.4923
 L -20.5364,-17.4952 L -21.869,-16.4291 L -23.1154,-15.2982 L -24.2705,-14.1068 L -25.3298,-12.8598 L -26.2892,-11.5621
 L -27.1448,-10.2187 L -27.8933,-8.83498 L -28.5317,-7.4164 L -29.0575,-5.96855 L -29.4686,-4.49715 L -29.7634,-3.008
 L -29.9408,-1.50696 L -29.9607,-1 z
M 29.9607,-1 L 29.9408,-1.50696 L 29.7634,-3.008 L 29.4686,-4.49715 L 29.0575,-5.96855 L 28.5317,-7.4164
 L 27.8933,-8.83498 L 27.1448,-10.2187 L 26.2892,-11.5621 L 25.3298,-12.8598 L 24.2705,-14.1068 L 23.1154,-15.2982
 L 21.869,-16.4291 L 20.5364,-17.4952 L 19.1227,-18.4923 L 17.6335,-19.4164 L 16.0748,-20.2639 L 14.4526,-21.0314
 L 14.1344,-21.1611 L 16.1796,-20.6301 L 18.3066,-19.9798 L 20.3614,-19.2507 L 22.3358,-18.4456 L 24.2221,-17.5677
 L 26.0128,-16.6205 L 27.7008,-15.6077 L 29.2795,-14.5333 L 30.7426,-13.4015 L 32.0845,-12.2168 L 33.2997,-10.984
 L 34.3834,-9.70776 L 35.3315,-8.39323 L 36.1401,-7.04558 L 36.8062,-5.67012 L 37.3269,-4.27229 L 37.7003,-2.85759
 L 37.925,-1.43161 L 37.9476,-1 z
M 34.4441,9.62361 L 34.191,9.66371 L 34.0432,9.739 L 34,9.73215 L 33.691,9.7811 L 33.5396,9.85823
 L 33.5,9.85196 L 33.191,9.90089 L 33.0363,9.97971 L 33,9.97395 L 32.691,10.0229 L 32.5334,10.1032
 L 32.5,10.0979 L 32.191,10.1468 L 32.0308,10.2284 L 32,10.2236 L 31.691,10.2725 L 31.5286,10.3552
 L 31.5,10.3507 L 31.191,10.3996 L 31.0268,10.4833 L 31,10.4791 L 30.691,10.528 L 30.5253,10.6124
 L 30.5,10.6084 L 30.191,10.6574 L 30.0242,10.7424 L 30,10.7385 L 29.691,10.7875 L 29.5234,10.8729
 L 29.5,10.8692 L 29.191,10.9181 L 29.0231,11.0036 L 29,11 L 28.691,11.049 L 28.5231,11.1345
 L 28.5,11.1309 L 28.191,11.1798 L 28.0234,11.2652 L 28,11.2615 L 27.691,11.3104 L 27.5242,11.3954
 L 27.5,11.3916 L 27.191,11.4405 L 27.0253,11.5249 L 27,11.521 L 26.691,11.5699 L 26.5268,11.6536
 L 26.5,11.6493 L 26.191,11.6983 L 26.187,11.7003 L 26.2892,11.5621 L 27.1448,10.2187 L 27.8933,8.83498
 L 28.5317,7.4164 L 29.0575,5.96855 L 29.4686,4.49715 L 29.7634,3.008 L 29.9408,1.50696 L 29.9607,1
 L 37.9476,1 L 37.925,1.43161 L 37.7003,2.85759 L 37.3269,4.27229 L 36.8062,5.67012 L 36.1401,7.04558
 L 35.3315,8.39323 z
M -35.3315,8.39323 L -36.1401,7.04558 L -36.8062,5.67012 L -37.3269,4.27229 L -37.7003,2.85759 L -37.925,1.43161
 L -37.9476,1 L -29.9607,1 L -29.9408,1.50696 L -29.7634,3.008 L -29.4686,4.49715 L -29.0575,5.96855
 L -28.5317,7.4164 L -28.2082,8.13521 L -28.309,8.15117 L -28.3359,8.16486 L -28.5,8.13885 L -28.809,8.18781
 L -28.844,8.20563 L -29,8.18092 L -29.309,8.22987 L -29.352,8.2518 L -29.5,8.22836 L -29.809,8.27731
 L -29.8599,8.30327 L -30,8.28108 L -30.309,8.33003 L -30.3677,8.35992 L -30.5,8.33897 L -30.809,8.38792
 L -30.8753,8.42169 L -31,8.40193 L -31.309,8.45088 L -31.3827,8.48842 L -31.5,8.46983 L -31.809,8.51878
 L -31.8899,8.56 L -32,8.54256 L -32.309,8.59149 L -32.3969,8.63628 L -32.5,8.61995 L -32.809,8.66888
 L -32.9037,8.71713 L -33,8.70187 L -33.309,8.75082 L -33.4102,8.8024 L -33.5,8.78818 L -33.809,8.83711
 L -33.9165,8.89191 L -34,8.87869 L -34.309,8.92763 L -34.4226,8.9855 L -34.5,8.97324 L -34.809,9.02219
 L -34.8594,9.04785 z
M 30.7426,13.4015 L 29.2795,14.5333 L 27.7008,15.6077 L 26.0128,16.6205 L 24.2221,17.5677 L 22.3358,18.4456
 L 20.3614,19.2507 L 18.3066,19.9798 L 16.1796,20.6301 L 13.9887,21.1989 L 11.7426,21.6841 L 9.45021,22.0837
 L 7.12048,22.3961 L 4.76265,22.6202 L 2.38603,22.755 L 0,22.8 L -2.38603,22.755 L -4.76265,22.6202
 L -7.12048,22.3961 L -9.45021,22.0837 L -11.7426,21.6841 L -13.9887,21.1989 L -16.1796,20.6301 L -18.3066,19.9798
 L -20.3614,19.2507 L -22.3358,18.4456 L -24.2221,17.5677 L -26.0128,16.6205 L -27.7008,15.6077 L -29.2795,14.5333
 L -30.7426,13.4015 L -32.0845,12.2168 L -33.2997,10.984 L -33.47,10.7834 L -33.191,10.7392 L -33.0898,10.6877
 L -33,10.7019 L -32.691,10.6529 L -32.5963,10.6047 L -32.5,10.6199 L -32.191,10.571 L -32.1031,10.5262
 L -32,10.5426 L -31.691,10.4936 L -31.6101,10.4524 L -31.5,10.4698 L -31.191,10.4209 L -31.1173,10.3833
 L -31,10.4019 L -30.691,10.353 L -30.6247,10.3192 L -30.5,10.339 L -30.191,10.29 L -30.1323,10.2601
 L -30,10.2811 L -29.691,10.2321 L -29.64,10.2062 L -29.5,10.2284 L -29.191,10.1794 L -29.1479,10.1575
 L -29,10.1809 L -28.691,10.132 L -28.656,10.1142 L -28.5,10.1389 L -28.191,10.0899 L -28.1641,10.0762
 L -28,10.1022 L -27.691,10.0533 L -27.6724,10.0438 L -27.5,10.0711 L -27.191,10.0222 L -27.1807,10.017
 L -27,10.0456 L -26.691,9.99664 L -26.6892,9.99571 L -26.5,10.0257 L -26.205,9.97896 L -26,10.0114
 L -25.723,9.96754 L -25.5,10.0029 L -25.241,9.96184 L -25,10 L -24.759,9.96184 L -24.5,10.0029
 L -24.277,9.96754 L -24,10.0114 L -23.795,9.97896 L -23.5,10.0257 L -23.3108,9.99571 L -23.309,9.99664
 L -23,10.0456 L -22.8193,10.017 L -22.809,10.0222 L -22.5,10.0711 L -22.3276,10.0438 L -22.309,10.0533
 L -22,10.1022 L -21.8359,10.0762 L -21.809,10.0899 L -21.5,10.1389 L -21.344,10.1142 L -21.309,10.132
 L -21,10.1809 L -20.8521,10.1575 L -20.809,10.1794 L -20.5,10.2284 L -20.36,10.2062 L -20.309,10.2321
 L -20,10.2811 L -19.8677,10.2601 L -19.809,10.29 L -19.5,10.339 L -19.3753,10.3192 L -19.309,10.353
 L -19,10.4019 L -18.8827,10.3833 L -18.809,10.4209 L -18.5,10.4698 L -18.3899,10.4524 L -18.309,10.4936
 L -18,10.5426 L -17.8969,10.5262 L -17.809,10.571 L -17.5,10.6199 L -17.4037,10.6047 L -17.309,10.6529
 L -17,10.7019 L -16.9102,10.6877 L -16.809,10.7392 L -16.5,10.7882 L -16.4165,10.775 L -16.309,10.8297
 L -16,10.8787 L -15.9226,10.8664 L -15.809,10.9243 L -15.5,10.9732 L -15.4284,10.9619 L -15.309,11.0227
 L -15,11.0716 L -14.9339,11.0612 L -14.809,11.1248 L -14.5,11.1737 L -14.4391,11.1641 L -14.309,11.2303
 L -14,11.2793 L -13.944,11.2704 L -13.809,11.3392 L -13.5,11.3881 L -13.4486,11.38 L -13.309,11.4511
 L -13,11.5 L -12.9529,11.4925 L -12.809,11.5658 L -12.5,11.6148 L -12.4568,11.6079 L -12.309,11.6832
 L -12,11.7321 L -11.9604,11.7259 L -11.809,11.803 L -11.5,11.852 L -11.4637,11.8462 L -11.309,11.925
 L -11,11.974 L -10.9666,11.9687 L -10.809,12.0489 L -10.5,12.0979 L -10.4692,12.093 L -10.309,12.1746
 L -10,12.2235 L -9.97137,12.219 L -9.80902,12.3017 L -9.5,12.3507 L -9.47324,12.3464 L -9.30902,12.4301
 L -9,12.479 L -8.97472,12.4751 L -8.80902,12.5595 L -8.5,12.6084 L -8.47585,12.6046 L -8.30902,12.6896
 L -8,12.7385 L -7.97658,12.7348 L -7.80902,12.8202 L -7.5,12.8691 L -7.47694,12.8655 L -7.30902,12.951
 L -7,13 L -6.97694,12.9964 L -6.80902,13.0819 L -6.5,13.1308 L -6.47659,13.1271 L -6.30902,13.2125
 L -6,13.2615 L -5.97585,13.2576 L -5.80902,13.3426 L -5.5,13.3916 L -5.47473,13.3876 L -5.30902,13.472
 L -5,13.5209 L -4.97324,13.5167 L -4.80902,13.6004 L -4.5,13.6493 L -4.47139,13.6448 L -4.30902,13.7275
 L -4,13.7764 L -3.96918,13.7716 L -3.80902,13.8532 L -3.5,13.9021 L -3.4666,13.8968 L -3.30902,13.9771
 L -3,14.026 L -2.9637,14.0203 L -2.80902,14.0991 L -2.5,14.148 L -2.4604,14.1418 L -2.30902,14.2189
 L -2,14.2679 L -1.95679,14.261 L -1.80902,14.3363 L -1.5,14.3852 L -1.45285,14.3778 L -1.30902,14.451
 L -1,14.5 L -0.948563,14.4919 L -0.809021,14.5629 L -0.5,14.6119 L -0.443985,14.603 L -0.309021,14.6718
 L 0,14.7207 L 0.0609283,14.7111 L 0.190979,14.7773 L 0.5,14.8263 L 0.566147,14.8158 L 0.690979,14.8794
 L 1,14.9284 L 1.07164,14.917 L 1.19098,14.9778 L 1.5,15.0268 L 1.57741,15.0145 L 1.69098,15.0724
 L 2,15.1213 L 2.08344,15.1081 L 2.19098,15.1629 L 2.5,15.2118 L 2.58975,15.1976 L 2.69098,15.2492
 L 3,15.2981 L 3.0963,15.2829 L 3.19098,15.3311 L 3.5,15.3801 L 3.60309,15.3637 L 3.69098,15.4085
 L 4,15.4574 L 4.11009,15.44 L 4.19098,15.4812 L 4.5,15.5302 L 4.61731,15.5116 L 4.69098,15.5491
 L 5,15.5981 L 5.12471,15.5783 L 5.19098,15.6121 L 5.5,15.661 L 5.63229,15.6401 L 5.69098,15.67
 L 6,15.7189 L 6.14005,15.6967 L 6.19098,15.7227 L 6.5,15.7716 L 6.64795,15.7482 L 6.69098,15.7701
 L 7,15.8191 L 7.15599,15.7944 L 7.19098,15.8122 L 7.5,15.8611 L 7.66412,15.8351 L 7.69098,15.8488
 L 8,15.8978 L 8.17238,15.8705 L 8.19098,15.8799 L 8.5,15.9289 L 8.68074,15.9003 L 8.69098,15.9055
 L 9,15.9544 L 9.18916,15.9245 L 9.19098,15.9254 L 9.5,15.9743 L 9.705,15.9418 L 10,15.9886
 L 10.223,15.9533 L 10.5,15.9971 L 10.741,15.959 L 11,16 L 11.259,15.959 L 11.5,15.9971
 L 11.777,15.9533 L 12,15.9886 L 12.295,15.9418 L 12.5,15.9743 L 12.809,15.9254 L 12.8108,15.9245
 L 13,15.9544 L 13.309,15.9055 L 13.3192,15.9003 L 13.5,15.9289 L 13.809,15.8799 L 13.8276,15.8705
 L 14,15.8978 L 14.309,15.8488 L 14.3359,15.8351 L 14.5,15.8611 L 14.809,15.8122 L 14.844,15.7944
 L 15,15.8191 L 15.309,15.7701 L 15.352,15.7482 L 15.5,15.7716 L 15.809,15.7227 L 15.8599,15.6967
 L 16,15.7189 L 16.309,15.67 L 16.3677,15.6401 L 16.5,15.661 L 16.809,15.6121 L 16.8753,15.5783
 L 17,15.5981 L 17.309,15.5491 L 17.3827,15.5116 L 17.5,15.5302 L 17.809,15.4812 L 17.8899,15.44
 L 18,15.4574 L 18.309,15.4085 L 18.3969,15.3637 L 18.5,15.3801 L 18.809,15.3311 L 18.9037,15.2829
 L 19,15.2981 L 19.309,15.2492 L 19.4102,15.1976 L 19.5,15.2118 L 19.809,15.1629 L 19.9165,15.1081
 L 20,15.1213 L 20.309,15.0724 L 20.4226,15.0145 L 20.5,15.0268 L 20.809,14.9778 L 20.9283,14.917
 L 21,14.9284 L 21.309,14.8794 L 21.4339,14.8158 L 21.5,14.8263 L 21.809,14.7773 L 21.9391,14.7111
 L 22,14.7207 L 22.309,14.6718 L 22.444,14.603 L 22.5,14.6119 L 22.809,14.5629 L 22.9485,14.4919
 L 23,14.5 L 23.309,14.451 L 23.4528,14.3778 L 23.5,14.3852 L 23.809,14.3363 L 23.9568,14.261
 L 24,14.2679 L 24.309,14.2189 L 24.4604,14.1418 L 24.5,14.148 L 24.809,14.0991 L 24.9637,14.0203
 L 25,14.026 L 25.309,13.9771 L 25.4666,13.8968 L 25.5,13.9021 L 25.809,13.8532 L 25.9692,13.7716
 L 26,13.7764 L 26.309,13.7275 L 26.4714,13.6448 L 26.5,13.6493 L 26.809,13.6004 L 26.9732,13.5167
 L 27,13.5209 L 27.309,13.472 L 27.4747,13.3876 L 27.5,13.3916 L 27.809,13.3426 L 27.9758,13.2576
 L 28,13.2615 L 28.309,13.2125 L 28.4766,13.1271 L 28.5,13.1308 L 28.809,13.0819 L 28.9769,12.9964
 L 29,13 L 29.309,12.951 L 29.4769,12.8655 L 29.5,12.8691 L 29.809,12.8202 L 29.9766,12.7348
 L 30,12.7385 L 30.309,12.6896 L 30.4758,12.6046 L 30.5,12.6084 L 30.809,12.5595 L 30.9747,12.475
 L 31,12.479 L 31.309,12.4301 L 31.4732,12.3464 L 31.5,12.3507 L 31.809,12.3017 L 31.9714,12.219
 L 32,12.2235 L 32.0923,12.2089 L 32.0845,12.2168 z
" stroke="black" fill="lightgray" stroke-width="0.5"/>
</svg>
