<?xml version="1.0" standalone="no"?>
<!DOCTYPE svg PUBLIC "-//W3C//DTD SVG 1.1//EN" "http://www.w3.org/Graphics/SVG/1.1/DTD/svg11.dtd">
<svg width="108mm" height="76mm" viewBox="-54 -38 108 76" xmlns="http://www.w3.org/2000/svg" version="1.1">
<title>OpenSCAD Model</title>
<path d="
M 3.39069,37.7254 L 6.76799,37.5019 L 10.1186,37.1304 L 13.4292,36.6124 L 16.6869,35.9499 L 19.8787,35.1455
 L 22.9921,34.2025 L 26.0147,33.1244 L 28.9346,31.9156 L 31.7404,30.5808 L 34.4209,29.1254 L 36.9655,27.555
 L 39.3643,25.8759 L 41.6077,24.0946 L 43.6869,22.2183 L 45.5937,20.2542 L 47.3206,18.2103 L 48.8607,16.0945
 L 50.2079,13.9151 L 51.357,11.6808 L 52.3035,9.40047 L 53.0435,7.08301 L 53.5742,4.73759 L 53.8934,2.37347
 L 54,-0 L 53.8934,-2.37347 L 53.5742,-4.73759 L 53.0435,-7.08301 L 52.3035,-9.40047 L 51.357,-11.6808
 L 50.2079,-13.9151 L 48.8607,-16.0945 L 47.3206,-18.2103 L 45.5937,-20.2542 L 43.6869,-22.2183 L 41.6077,-24.0946
 L 39.3643,-25.8759 L 36.9655,-27.555 L 34.4209,-29.1254 L 31.7404,-30.5808 L 28.9346,-31.9156 L 26.0147,-33.1244
 L 22.9921,-34.2025 L 19.8787,-35.1455 L 16.6869,-35.9499 L 13.4292,-36.6124 L 10.1186,-37.1304 L 6.76799,-37.5019
 L 3.39069,-37.7254 L 0,-37.8 L -3.39069,-37.7254 L -6.76799,-37.5019 L -10.1186,-37.1304 L -13.4292,-36.6124
 L -16.6869,-35.9499 L -19.8787,-35.1455 L -22.9921,-34.2025 L -26.0147,-33.1244 L -28.9346,-31.9156 L -31.7404,-30.5808
 L -34.4209,-29.1254 L -36.9655,-27.555 L -39.3643,-25.8759 L -41.6077,-24.0946 L -43.6869,-22.2183 L -45.5937,-20.2542
 L -47.3206,-18.2103 L -48.8607,-16.0945 L -50.2079,-13.9151 L -51.357,-11.6808 L -52.3035,-9.40047 L -53.0435,-7.08301
 L -53.5742,-4.73759 L -53.8934,-2.37347 L -54,-0 L -53.8934,2.37347 L -53.5742,4.73759 L -53.0435,7.08301
 L -52.3035,9.40047 L -51.357,11.6808 L -50.2079,13.9151 L -48.8607,16.0945 L -47.3206,18.2103 L -45.5937,20.2542
 L -43.6869,22.2183 L -41.6077,24.0946 L -39.3643,25.8759 L -36.9655,27.555 L -34.4209,29.1254 L -31.7404,30.5808
 L -28.9346,31.9156 L -26.0147,33.1244 L -22.9921,34.2025 L -19.8787,35.1455 L -16.6869,35.9499 L -13.4292,36.6124
 L -10.1186,37.1304 L -6.76799,37.5019 L -3.39069,37.7254 L 0,37.8 z
M -3.26511,36.3282 L -6.51732,36.113 L -9.74382,35.7552 L -12.9319,35.2564 L -16.0689,34.6185 L -19.1425,33.8439
 L -22.1405,32.9357 L -25.0512,31.8976 L -27.863,30.7335 L -30.5648,29.4482 L -33.146,28.0467 L -35.5964,26.5345
 L -37.9064,24.9175 L -40.0667,23.2022 L -42.0689,21.3954 L -43.905,19.5041 L -45.5679,17.5358 L -47.051,15.4984
 L -48.3484,13.3997 L -49.4549,11.2482 L -50.3663,9.05231 L -51.0789,6.82068 L -51.59,4.56212 L -51.8974,2.28557
 L -52,-0 L -51.8974,-2.28557 L -51.59,-4.56212 L -51.0789,-6.82068 L -50.3663,-9.05231 L -49.4549,-11.2482
 L -48.3484,-13.3997 L -47.051,-15.4984 L -45.5679,-17.5358 L -43.905,-19.5041 L -42.0689,-21.3954 L -40.0667,-23.2022
 L -37.9064,-24.9175 L -35.5964,-26.5345 L -33.146,-28.0467 L -30.5648,-29.4482 L -27.863,-30.7335 L -25.0512,-31.8976
 L -22.1405,-32.9357 L -19.1425,-33.8439 L -16.0689,-34.6185 L -12.9319,-35.2564 L -9.74382,-35.7552 L -6.51732,-36.113
 L -3.26511,-36.3282 L 0,-36.4 L 3.26511,-36.3282 L 6.51732,-36.113 L 9.74382,-35.7552 L 12.9319,-35.2564
 L 16.0689,-34.6185 L 19.1425,-33.8439 L 22.1405,-32.9357 L 25.0512,-31.8976 L 27.863,-30.7335 L 30.5648,-29.4482
 L 33.146,-28.0467 L 35.5964,-26.5345 L 37.9064,-24.9175 L 40.0667,-23.2022 L 42.0689,-21.3954 L 43.905,-19.5041
 L 45.5679,-17.5358 L 47.051,-15.4984 L 48.3484,-13.3997 L 49.4549,-11.2482 L 50.3663,-9.05231 L 51.0789,-6.82068
 L 51.59,-4.56212 L 51.8974,-2.28557 L 52,-0 L 51.8974,2.28557 L 51.59,4.56212 L 51.0789,6.82068
 L 50.3663,9.05231 L 49.4549,11.2482 L 48.3484,13.3997 L 47.051,15.4984 L 45.5679,17.5358 L 43.905,19.5041
 L 42.0689,21.3954 L 40.0667,23.2022 L 37.9064,24.9175 L 35.5964,26.5345 L 33.146,28.0467 L 30.5648,29.4482
 L 27.863,30.7335 L 25.0512,31.8976 L 22.1405,32.9357 L 19.1425,33.8439 L 16.0689,34.6185 L 12.9319,35.2564
 L 9.74382,35.7552 L 6.51732,36.113 L 3.26511,36.3282 L 0,36.4 z
M 0.294754,-24.7152 L 1.00217,-24.9391 L 1.61037,-25.3121 L 2.11934,-25.8344 L 2.52132,-26.4965 L 2.80846,-27.2891
 L 2.98073,-28.2121 L 3.03815,-29.2656 L 2.98268,-30.248 L 2.81625,-31.1078 L 2.53889,-31.8449 L 2.15057,-32.4594
 L 1.65918,-32.9434 L 1.07246,-33.2891 L 0.390442,-33.4965 L -0.386871,-33.5656 L -2.61185,-33.5656 L -2.61185,-24.6406
 L -0.511887,-24.6406 z
M -0.899338,-26.1407 L -0.899338,-32.0781 L -0.411896,-32.0781 L -0.0189056,-32.0348 L 0.322495,-31.9047 L 0.612335,-31.6879
 L 0.850616,-31.3843 L 1.03654,-30.9871 L 1.16934,-30.489 L 1.24902,-29.8902 L 1.27559,-29.1907 L 1.24825,-28.4656
 L 1.16621,-27.8406 L 1.02951,-27.3156 L 0.838104,-26.8906 L 0.588882,-26.5625 L 0.278732,-26.3282 L -0.0923462,-26.1875
 L -0.524399,-26.1407 z
M 7.33139,-25.0614 L 6.55026,-25.5008 L 7.25713,-31.8364 L 8.11588,-32.0928 L 8.21844,-33.0121 L 4.87671,-33.3849
 L 4.77414,-32.4656 L 5.55518,-32.0263 L 4.84831,-25.6906 L 3.98965,-25.4343 L 3.88708,-24.5149 L 7.22882,-24.1421
 z
M 16.1084,-31.4023 L 14.3771,-31.7935 L 12.206,-27.1195 L 12.1423,-26.981 L 12.0754,-26.8319 L 12.0053,-26.6723
 L 11.932,-26.5022 L 11.8581,-26.3275 L 11.786,-26.154 L 11.7159,-25.9817 L 11.6475,-25.8105 L 11.5825,-25.6449
 L 11.5222,-25.4896 L 11.4666,-25.3444 L 11.4156,-25.2093 L 11.4332,-25.3523 L 11.4494,-25.5076 L 11.4644,-25.6752
 L 11.4783,-25.8551 L 11.4908,-26.0417 L 11.502,-26.2294 L 11.5118,-26.4182 L 11.5203,-26.6081 L 11.527,-26.7924
 L 11.5319,-26.9643 L 11.5347,-27.1239 L 11.5355,-27.271 L 11.5972,-32.4216 L 9.85362,-32.8156 L 10.0446,-23.6224
 L 11.9711,-23.1871 z
M -12.2798,-23.1174 L -12.3026,-25.3165 L -10.364,-25.7545 L -9.43898,-23.7593 L -7.65884,-24.1615 L -11.7719,-32.3822
 L -13.9299,-31.8945 L -14.0722,-22.7124 z
M -12.4373,-29.2587 L -12.4475,-29.6937 L -12.4681,-30.104 L -12.4991,-30.4894 L -12.5406,-30.8501 L -12.4078,-30.5036
 L -12.2641,-30.1372 L -12.1096,-29.7508 L -11.944,-29.3445 L -10.9479,-27.1476 L -12.3744,-26.8252 z
M -15.2439,-22.2539 L -16.0616,-31.4156 L -17.7389,-30.8349 L -17.1183,-25.7188 L -17.0994,-25.5674 L -17.0776,-25.4055
 L -17.053,-25.233 L -17.0255,-25.0498 L -16.9962,-24.8624 L -16.9659,-24.677 L -16.9346,-24.4935 L -16.9024,-24.312
 L -16.8703,-24.1371 L -16.8396,-23.9733 L -16.8103,-23.8206 L -16.7823,-23.679 L -16.8429,-23.8097 L -16.911,-23.9502
 L -16.9866,-24.1006 L -17.0697,-24.2607 L -17.1575,-24.4258 L -17.247,-24.5912 L -17.3383,-24.7568 L -17.4312,-24.9226
 L -17.5226,-25.0828 L -17.6092,-25.2314 L -17.691,-25.3684 L -17.7679,-25.4939 L -20.432,-29.9024 L -22.1211,-29.3175
 L -17.1102,-21.6077 z
M 18.8137,-22.592 L 16.6403,-23.3446 L 17.4297,-25.6242 L 19.4495,-24.9248 L 19.928,-26.3068 L 17.9082,-27.0062
 L 18.5953,-28.9907 L 20.7687,-28.2381 L 21.2472,-29.6201 L 17.4556,-30.933 L 14.5354,-22.4992 L 18.327,-21.1864
 z
M 24.3062,-22.7544 L 24.6763,-22.813 L 25.0167,-22.9127 L 25.3273,-23.0534 L 25.608,-23.2351 L 25.8629,-23.4586
 L 26.0955,-23.7246 L 26.3061,-24.0332 L 26.4945,-24.3844 L 26.8155,-25.4854 L 26.6659,-26.4522 L 26.0457,-27.2849
 L 24.9549,-27.9835 L 23.0816,-28.8756 L 19.2442,-20.8177 L 20.7903,-20.0813 L 22.2952,-23.2413 L 22.7579,-23.021
 L 22.5734,-19.2322 L 24.2775,-18.4207 z
M 23.2254,-24.2936 L 22.8756,-24.4602 L 24.0043,-26.8302 L 24.3203,-26.6797 L 24.7613,-26.3848 L 25.0011,-26.0162
 L 25.0397,-25.5739 L 24.877,-25.0578 L 24.548,-24.536 L 24.1631,-24.2347 L 23.7222,-24.1539 z
M -19.3514,-20.7666 L -19.991,-22.1096 L -22.0675,-21.1208 L -23.1047,-23.2988 L -21.1749,-24.2178 L -21.8037,-25.5383
 L -23.7335,-24.6192 L -24.6364,-26.5153 L -22.5599,-27.5042 L -23.1888,-28.8246 L -26.8114,-27.0994 L -22.974,-19.0414
 z
M -27.3676,-16.4386 L -29.5497,-19.9538 L -29.6575,-20.1251 L -29.7763,-20.3098 L -29.9061,-20.5078 L -30.047,-20.7192
 L -30.1998,-20.9424 L -30.3656,-21.1761 L -30.5442,-21.4202 L -30.7357,-21.6747 L -30.6933,-21.701 L -25.1905,-17.7901
 L -23.4807,-18.8515 L -28.1879,-26.4342 L -29.5579,-25.5838 L -27.4152,-22.1322 L -27.3078,-21.9621 L -27.1899,-21.7811
 L -27.0615,-21.5891 L -26.9226,-21.3861 L -26.7739,-21.1717 L -26.616,-20.9456 L -26.449,-20.7077 L -26.2728,-20.458
 L -26.3153,-20.4316 L -31.735,-24.2323 L -33.4342,-23.1775 L -28.727,-15.5947 z
M 27.644,-16.7509 L 27.9706,-16.8135 L 28.2871,-16.9219 L 28.5934,-17.0761 L 28.8834,-17.2735 L 29.1508,-17.5117
 L 29.3956,-17.7905 L 29.6179,-18.11 L 29.8196,-18.4846 L 29.9566,-18.8542 L 30.029,-19.2189 L 30.0367,-19.5787
 L 29.9868,-19.9449 L 29.8862,-20.3287 L 29.735,-20.7302 L 29.5331,-21.1493 L 29.4043,-21.3989 L 29.2953,-21.6224
 L 29.2059,-21.82 L 29.1363,-21.9914 L 29.0861,-22.1454 L 29.0551,-22.2901 L 29.0432,-22.4258 L 29.0505,-22.5523
 L 29.0755,-22.6756 L 29.117,-22.8016 L 29.1748,-22.9303 L 29.249,-23.0617 L 29.3555,-23.2066 L 29.4773,-23.3228
 L 29.6143,-23.4101 L 29.7665,-23.4687 L 29.9296,-23.493 L 30.0992,-23.4774 L 30.2753,-23.4219 L 30.458,-23.3265
 L 30.7457,-23.1101 L 31.0143,-22.8303 L 31.2637,-22.4869 L 31.4939,-22.0801 L 32.6952,-23.1147 L 32.5546,-23.3541
 L 32.4021,-23.5816 L 32.2375,-23.7973 L 32.0611,-24.0011 L 31.8722,-24.1924 L 31.6706,-24.3705 L 31.4561,-24.5353
 L 31.2289,-24.687 L 30.7271,-24.9539 L 30.2344,-25.1112 L 29.7509,-25.1589 L 29.2766,-25.097 L 28.8288,-24.9341
 L 28.4247,-24.6787 L 28.0645,-24.3309 L 27.7479,-23.8906 L 27.5819,-23.5987 L 27.453,-23.3178 L 27.3613,-23.0478
 L 27.3066,-22.7888 L 27.2843,-22.5365 L 27.2892,-22.2866 L 27.3212,-22.0391 L 27.3806,-21.794 L 27.462,-21.5466
 L 27.5603,-21.2925 L 27.6756,-21.0315 L 27.8078,-20.7637 L 27.9335,-20.5211 L 28.0374,-20.3012 L 28.1196,-20.104
 L 28.1799,-19.9296 L 28.2209,-19.7717 L 28.2445,-19.6246 L 28.2509,-19.4883 L 28.24,-19.3626 L 28.2134,-19.2421
 L 28.1728,-19.1211 L 28.1181,-18.9996 L 28.0493,-18.8777 L 27.9319,-18.7175 L 27.7973,-18.5873 L 27.6454,-18.4871
 L 27.4763,-18.4169 L 27.2949,-18.3846 L 27.1062,-18.3983 L 26.9102,-18.458 L 26.7068,-18.5636 L 26.5172,-18.6936
 L 26.3308,-18.8466 L 26.1475,-19.0225 L 25.9674,-19.2212 L 25.7956,-19.4377 L 25.6373,-19.667 L 25.4924,-19.9091
 L 25.3609,-20.164 L 24.438,-18.6773 L 24.5881,-18.4346 L 24.748,-18.2108 L 24.9177,-18.0057 L 25.0972,-17.8194
 L 25.2884,-17.6459 L 25.4932,-17.4797 L 25.7117,-17.3206 L 25.9438,-17.1687 L 26.2839,-16.9833 L 26.6245,-16.8491
 L 26.9656,-16.7661 L 27.3072,-16.7343 z
M 2.07208,21.737 L 4.13599,21.6082 L 6.18358,21.3942 L 8.20676,21.0957 L 10.1976,20.714 L 12.1481,20.2505
 L 14.0507,19.7071 L 15.8979,19.086 L 17.6823,18.3895 L 19.3969,17.6204 L 21.035,16.7818 L 22.59,15.8769
 L 24.056,14.9094 L 25.4269,13.8831 L 26.6976,12.802 L 27.8628,11.6703 L 28.9181,10.4926 L 29.8593,9.27347
 L 30.6826,8.01775 L 31.3849,6.73038 L 31.9632,5.41646 L 32.4155,4.08116 L 32.7398,2.72975 L 32.9349,1.36757
 L 33,-0 L 32.9349,-1.36757 L 32.7398,-2.72975 L 32.4155,-4.08116 L 31.9632,-5.41646 L 31.3849,-6.73038
 L 30.6826,-8.01775 L 29.8593,-9.27347 L 28.9181,-10.4926 L 27.8628,-11.6703 L 26.6976,-12.802 L 25.4269,-13.8831
 L 24.056,-14.9094 L 22.59,-15.8769 L 21.035,-16.7818 L 19.3969,-17.6204 L 17.6823,-18.3895 L 15.8979,-19.086
 L 14.0507,-19.7071 L 12.1481,-20.2505 L 10.1976,-20.714 L 8.20676,-21.0957 L 6.18358,-21.3942 L 4.13599,-21.6082
 L 2.07208,-21.737 L 0,-21.78 L -2.07208,-21.737 L -4.13599,-21.6082 L -6.18358,-21.3942 L -8.20676,-21.0957
 L -10.1976,-20.714 L -12.1481,-20.2505 L -14.0507,-19.7071 L -15.8979,-19.086 L -17.6823,-18.3895 L -19.3969,-17.6204
 L -21.035,-16.7818 L -22.59,-15.8769 L -24.056,-14.9094 L -25.4269,-13.8831 L -26.6976,-12.802 L -27.8628,-11.6703
 L -28.9181,-10.4926 L -29.8593,-9.27347 L -30.6826,-8.01775 L -31.3849,-6.73038 L -31.9632,-5.41646 L -32.4155,-4.08116
 L -32.7398,-2.72975 L -32.9349,-1.36757 L -33,-0 L -32.9349,1.36757 L -32.7398,2.72975 L -32.4155,4.08116
 L -31.9632,5.41646 L -31.3849,6.73038 L -30.6826,8.01775 L -29.8593,9.27347 L -28.9181,10.4926 L -27.8628,11.6703
 L -26.6976,12.802 L -25.4269,13.8831 L -24.056,14.9094 L -22.59,15.8769 L -21.035,16.7818 L -19.3969,17.6204
 L -17.6823,18.3895 L -15.8979,19.086 L -14.0507,19.7071 L -12.1481,20.2505 L -10.1976,20.714 L -8.20676,21.0957
 L -6.18358,21.3942 L -4.13599,21.6082 L -2.07208,21.737 L 0,21.78 z
M 8.5,12.9988 L 8.28073,13.0335 L 8,12.989 L 7.81009,13.0191 L 7.80901,13.0186 L 7.5,12.9696
 L 7.32446,12.9974 L 7.30901,12.9895 L 7,12.9406 L 6.83862,12.9661 L 6.80901,12.951 L 6.5,12.9021
 L 6.35249,12.9255 L 6.30901,12.9033 L 6,12.8544 L 5.86603,12.8756 L 5.80901,12.8465 L 5.5,12.7976
 L 5.37914,12.8167 L 5.30901,12.781 L 5,12.732 L 4.89177,12.7492 L 4.80901,12.707 L 4.5,12.6581
 L 4.40387,12.6733 L 4.30901,12.625 L 4,12.576 L 3.91537,12.5894 L 3.80901,12.5352 L 3.5,12.4863
 L 3.42622,12.498 L 3.30901,12.4382 L 3,12.3893 L 2.93634,12.3994 L 2.80901,12.3345 L 2.5,12.2856
 L 2.44572,12.2942 L 2.30901,12.2245 L 2,12.1756 L 1.9543,12.1828 L 1.80901,12.1088 L 1.5,12.0598
 L 1.46202,12.0658 L 1.30901,11.9879 L 1,11.9389 L 0.968887,11.9439 L 0.809006,11.8624 L 0.5,11.8135
 L 0.474808,11.8175 L 0.309006,11.733 L 0,11.6841 L -0.0201874,11.6873 L -0.190994,11.6002 L -0.5,11.5513
 L -0.516174,11.5538 L -0.690994,11.4648 L -1,11.4158 L -1.01314,11.4179 L -1.19099,11.3273 L -1.5,11.2784
 L -1.51112,11.2801 L -1.69099,11.1885 L -2,11.1395 L -2.01009,11.1411 L -2.19099,11.049 L -2.5,11
 L -2.51012,11.0016 L -2.69099,10.9094 L -3,10.8605 L -3.01112,10.8622 L -3.19099,10.7706 L -3.5,10.7217
 L -3.51314,10.7237 L -3.69099,10.6331 L -4,10.5842 L -4.01617,10.5867 L -4.19099,10.4977 L -4.5,10.4487
 L -4.5202,10.4519 L -4.69099,10.3649 L -5,10.316 L -5.02519,10.32 L -5.19099,10.2355 L -5.5,10.1865
 L -5.53111,10.1915 L -5.69099,10.11 L -6,10.0611 L -6.03796,10.0671 L -6.19099,9.98911 L -6.5,9.94017
 L -6.54572,9.9474 L -6.69099,9.87338 L -7,9.82443 L -7.05429,9.83304 L -7.19099,9.76338 L -7.5,9.71443
 L -7.56366,9.72452 L -7.69099,9.65964 L -8,9.61069 L -8.07379,9.62238 L -8.19099,9.56267 L -8.5,9.51372
 L -8.58464,9.52713 L -8.69099,9.47293 L -9,9.42398 L -9.09613,9.43921 L -9.19099,9.39087 L -9.5,9.34193
 L -9.60822,9.35907 L -9.69099,9.31689 L -10,9.26796 L -10.1208,9.28709 L -10.191,9.25136 L -10.5,9.20242
 L -10.634,9.22363 L -10.691,9.19458 L -11,9.14565 L -11.1475,9.16901 L -11.191,9.14684 L -11.5,9.0979
 L -11.6614,9.12346 L -11.691,9.10835 L -12,9.05942 L -12.1755,9.08722 L -12.191,9.07933 L -12.5,9.0304
 L -12.6899,9.06047 L -12.691,9.05991 L -13,9.01097 L -13.2193,9.0457 L -13.5,9.00122 L -13.75,9.04082
 L -14,9.00122 L -14.2807,9.04568 L -14.5,9.01097 L -14.809,9.05991 L -14.8101,9.06047 L -15,9.0304
 L -15.309,9.07933 L -15.3245,9.08722 L -15.5,9.05942 L -15.809,9.10835 L -15.8387,9.12346 L -16,9.0979
 L -16.309,9.14684 L -16.3525,9.16901 L -16.5,9.14565 L -16.809,9.19458 L -16.866,9.22363 L -17,9.20242
 L -17.309,9.25136 L -17.3792,9.28709 L -17.5,9.26796 L -17.809,9.31689 L -17.8918,9.35907 L -18,9.34193
 L -18.309,9.39087 L -18.4039,9.43921 L -18.5,9.42398 L -18.809,9.47293 L -18.9154,9.52713 L -19,9.51372
 L -19.309,9.56267 L -19.4262,9.62238 L -19.5,9.61069 L -19.5851,9.62418 L -19.7169,9.43031 L -20.3586,8.33463
 L -20.92,7.20602 L -21.3988,6.049 L -21.7931,4.8681 L -22.1015,3.66798 L -22.3226,2.45338 L -22.4556,1.22911
 L -22.4639,1 L -15,1 L -15,-1 L -22.4639,-1 L -22.4556,-1.22911 L -22.3226,-2.45338
 L -22.1015,-3.66798 L -21.7931,-4.8681 L -21.3988,-6.049 L -20.92,-7.20602 L -20.3586,-8.33463 L -19.7169,-9.43031
 L -18.9974,-10.4888 L -18.2029,-11.5059 L -17.3365,-12.4776 L -16.4018,-13.4 L -15.4023,-14.2695 L -14.342,-15.0828
 L -13.2252,-15.8365 L -12.0561,-16.5277 L -10.8394,-17.1537 L -9.58003,-17.712 L -8.28279,-18.2004 L -6.95288,-18.6169
 L -5.59552,-18.96 L -4.21606,-19.2283 L -2.81999,-19.4206 L -1.41278,-19.5364 L -1,-19.5477 L -1,-11
 L 1,-11 L 1,-19.5477 L 1.41278,-19.5364 L 2.81999,-19.4206 L 4.21606,-19.2283 L 5.59552,-18.96
 L 6.95288,-18.6169 L 8.28279,-18.2004 L 9.58003,-17.712 L 10.8394,-17.1537 L 12.0561,-16.5277 L 13.2252,-15.8365
 L 14.342,-15.0828 L 15.4023,-14.2695 L 16.4018,-13.4 L 17.3365,-12.4776 L 18.2029,-11.5059 L 18.9974,-10.4888
 L 19.7169,-9.43031 L 20.3586,-8.33463 L 20.92,-7.20602 L 21.3988,-6.049 L 21.7931,-4.8681 L 22.1015,-3.66798
 L 22.3226,-2.45338 L 22.4556,-1.22911 L 22.4639,-1 L 15,-1 L 15,1 L 22.4639,1
 L 22.4556,1.22911 L 22.3226,2.45338 L 22.1015,3.66798 L 21.7931,4.8681 L 21.3988,6.049 L 20.92,7.20602
 L 20.3586,8.33463 L 19.7169,9.43031 L 18.9974,10.4888 L 18.2412,11.4568 L 18.191,11.4648 L 18.0162,11.5538
 L 18,11.5513 L 17.691,11.6002 L 17.5202,11.6872 L 17.5,11.6841 L 17.191,11.733 L 17.0252,11.8175
 L 17,11.8135 L 16.691,11.8624 L 16.5311,11.9439 L 16.5,11.9389 L 16.191,11.9879 L 16.038,12.0658
 L 16,12.0598 L 15.691,12.1088 L 15.5457,12.1828 L 15.5,12.1756 L 15.191,12.2245 L 15.0543,12.2942
 L 15,12.2856 L 14.691,12.3345 L 14.5636,12.3994 L 14.5,12.3893 L 14.191,12.4382 L 14.0738,12.498
 L 14,12.4863 L 13.691,12.5352 L 13.5846,12.5894 L 13.5,12.576 L 13.191,12.625 L 13.0961,12.6733
 L 13,12.6581 L 12.691,12.707 L 12.6082,12.7492 L 12.5,12.732 L 12.191,12.781 L 12.1208,12.8167
 L 12,12.7976 L 11.691,12.8465 L 11.634,12.8756 L 11.5,12.8544 L 11.191,12.9033 L 11.1475,12.9255
 L 11,12.9021 L 10.691,12.951 L 10.6614,12.9661 L 10.5,12.9406 L 10.191,12.9895 L 10.1755,12.9974
 L 10,12.9696 L 9.69098,13.0186 L 9.6899,13.0191 L 9.5,12.989 L 9.21925,13.0335 L 9,12.9988
 L 8.75,13.0384 z
M -6.36212,5.7507 L -7.17874,5.7507 L -7.24088,5.74944 L -7.30164,5.74564 L -7.36102,5.7393 L -7.41902,5.73045
 L -7.47563,5.71906 L -7.53087,5.70514 L -7.58473,5.68867 L -7.63721,5.66969 L -7.68829,5.64818 L -7.73802,5.62411
 L -7.78635,5.59753 L -7.83331,5.56842 L -7.87889,5.53679 L -7.92203,5.50018 L -7.96172,5.45624 L -7.99796,5.40492
 L -8.03073,5.34624 L -8.06007,5.2802 L -8.08595,5.20679 L -8.10838,5.12602 L -8.12737,5.03789 L -8.1429,4.94238
 L -8.15497,4.83954 L -8.1636,4.72931 L -8.16878,4.61172 L -8.1705,4.48679 L -8.1705,-3.93266 L -1.31905,5.74721
 L -1.35614,5.74944 L -1.4211,5.7507 L -2.23772,5.7507 L -2.23772,6.78125 L 4.17889,6.78125 L 4.52446,6.77583
 L 4.86116,6.75961 L 5.18903,6.73257 L 5.50801,6.69472 L 5.81815,6.64604 L 6.11943,6.58656 L 6.41183,6.51627
 L 6.6954,6.43513 L 6.97009,6.34322 L 7.23593,6.24046 L 7.49292,6.12689 L 7.74104,6.00252 L 7.9803,5.86732
 L 8.21071,5.72252 L 8.43225,5.56932 L 8.64493,5.40771 L 8.84875,5.23772 L 9.04372,5.05933 L 9.22981,4.87253
 L 9.40706,4.67734 L 9.57544,4.47375 L 9.73495,4.26176 L 9.88562,4.04138 L 10.0274,3.81259 L 10.1604,3.57541
 L 10.2844,3.32982 L 10.3995,3.0771 L 10.5054,2.81853 L 10.602,2.55408 L 10.6895,2.28375 L 10.7677,2.00755
 L 10.8367,1.72549 L 10.8966,1.43758 L 10.9472,1.14378 L 10.9886,0.844116 L 11.0208,0.538589 L 11.0439,0.227188
 L 11.0577,-0.0900726 L 11.0623,-0.413208 L 11.0515,-0.912201 L 11.019,-1.39209 L 10.9649,-1.85289 L 10.8892,-2.29459
 L 10.7919,-2.71718 L 10.6729,-3.12068 L 10.5323,-3.50507 L 10.3701,-3.87038 L 10.1862,-4.21657 L 9.9807,-4.54367
 L 9.75357,-4.85167 L 9.50482,-5.14056 L 9.23442,-5.41037 L 8.94496,-5.66063 L 8.63892,-5.89087 L 8.31631,-6.10107
 L 7.97713,-6.29128 L 7.62138,-6.46146 L 7.24907,-6.61162 L 6.86017,-6.74174 L 6.45471,-6.85187 L 6.03268,-6.94196
 L 5.5941,-7.01202 L 5.13893,-7.06209 L 4.66719,-7.09212 L 4.17889,-7.10213 L -2.23772,-7.10213 L -2.23772,-6.07158
 L -1.4211,-6.07158 L -1.35896,-6.07037 L -1.2982,-6.06674 L -1.23883,-6.0607 L -1.18085,-6.05225 L -1.12424,-6.04137
 L -1.069,-6.02808 L -1.01515,-6.01236 L -0.962692,-5.99423 L -0.911606,-5.97368 L -0.861908,-5.95071 L -0.813599,-5.92534
 L -0.766663,-5.89754 L -0.7211,-5.86732 L -0.677933,-5.83252 L -0.638229,-5.79094 L -0.601974,-5.74255 L -0.569183,-5.68739
 L -0.539825,-5.62544 L -0.513931,-5.55669 L -0.491486,-5.48116 L -0.472504,-5.39883 L -0.456955,-5.30972 L -0.44487,-5.21381
 L -0.436249,-5.11111 L -0.431061,-5.00163 L -0.429337,-4.88536 L -0.429337,2.35652 L -7.1205,-7.10213 L -11.4371,-7.10213
 L -11.4371,-6.07158 L -10.6205,-6.07158 L -10.5612,-6.07037 L -10.5029,-6.06674 L -10.4457,-6.0607 L -10.3895,-6.05225
 L -10.3343,-6.04137 L -10.2801,-6.02808 L -10.227,-6.01236 L -10.175,-5.99423 L -10.1239,-5.97368 L -10.0739,-5.95071
 L -10.025,-5.92534 L -9.97705,-5.89754 L -9.93016,-5.86732 L -9.88557,-5.83252 L -9.84456,-5.79094 L -9.8071,-5.74255
 L -9.77321,-5.68739 L -9.74289,-5.62544 L -9.71614,-5.55669 L -9.69295,-5.48116 L -9.67334,-5.39883 L -9.65729,-5.30972
 L -9.64479,-5.21381 L -9.63588,-5.11111 L -9.63052,-5.00163 L -9.62874,-4.88536 L -9.62874,4.48679 L -9.63048,4.61172
 L -9.63565,4.72931 L -9.64429,4.83954 L -9.65637,4.94238 L -9.67191,5.03789 L -9.69089,5.12602 L -9.71333,5.20679
 L -9.73923,5.2802 L -9.76859,5.34624 L -9.80138,5.40492 L -9.83763,5.45624 L -9.87735,5.50018 L -9.9205,5.53679
 L -9.96606,5.56842 L -10.013,5.59753 L -10.0613,5.62411 L -10.111,5.64818 L -10.1621,5.66969 L -10.2146,5.68867
 L -10.2684,5.70514 L -10.3236,5.71906 L -10.3802,5.73045 L -10.4382,5.7393 L -10.4976,5.74564 L -10.5584,5.74944
 L -10.6205,5.7507 L -11.4371,5.7507 L -11.4371,6.78125 L -6.36212,6.78125 z
M 2.64282,5.5757 L 2.64282,-5.91605 L 3.75121,-5.91605 L 4.05061,-5.90799 L 4.33865,-5.88382 L 4.61528,-5.84355
 L 4.88052,-5.78717 L 5.1344,-5.71468 L 5.37686,-5.62608 L 5.60796,-5.52136 L 5.82765,-5.40054 L 6.03596,-5.26363
 L 6.23288,-5.11058 L 6.41841,-4.94144 L 6.59254,-4.75618 L 6.75531,-4.55482 L 6.90633,-4.33702 L 7.04526,-4.10243
 L 7.17212,-3.85104 L 7.28688,-3.58286 L 7.38957,-3.29785 L 7.48019,-2.99606 L 7.55872,-2.67749 L 7.62517,-2.3421
 L 7.67953,-1.98991 L 7.72182,-1.62094 L 7.75203,-1.23515 L 7.77014,-0.832581 L 7.77618,-0.413208 L 7.77014,0.00759888
 L 7.75203,0.41449 L 7.72182,0.807465 L 7.67953,1.18652 L 7.62517,1.55165 L 7.55872,1.90286 L 7.48019,2.24016
 L 7.38957,2.56354 L 7.28688,2.87299 L 7.17212,3.16852 L 7.04526,3.45012 L 6.90633,3.71782 L 6.75531,3.97159
 L 6.59244,4.20888 L 6.41795,4.42719 L 6.23184,4.62653 L 6.03412,4.80687 L 5.82477,4.96823 L 5.60381,5.1106
 L 5.37123,5.23399 L 5.12703,5.33841 L 4.8712,5.42383 L 4.60376,5.49028 L 4.32472,5.53773 L 4.03404,5.56621
 L 3.73174,5.5757 z
M -30.9524,-1 L -30.9388,-1.28468 L -30.7556,-2.56432 L -30.4509,-3.83382 L -30.0261,-5.08818 L -29.4827,-6.32248
 L -28.8231,-7.53181 L -28.0496,-8.71144 L -27.1655,-9.85667 L -26.1742,-10.963 L -25.0795,-12.0261 L -23.8859,-13.0417
 L -22.598,-14.0058 L -21.2209,-14.9147 L -19.7601,-15.7647 L -18.2213,-16.5525 L -16.6106,-17.2749 L -14.9344,-17.9292
 L -13.1992,-18.5128 L -11.4118,-19.0232 L -10.5786,-19.2212 L -11.803,-18.6785 L -13.1277,-17.9968 L -14.4007,-17.2442
 L -15.6169,-16.4235 L -16.7714,-15.538 L -17.8597,-14.5911 L -18.8776,-13.5867 L -19.8209,-12.5286 L -20.686,-11.4211
 L -21.4695,-10.2686 L -22.1683,-9.07549 L -22.7795,-7.84657 L -23.3009,-6.58669 L -23.7303,-5.30081 L -24.066,-3.99402
 L -24.3068,-2.67146 L -24.4516,-1.33838 L -24.4639,-1 z
M 24.4639,-1 L 24.4516,-1.33838 L 24.3068,-2.67146 L 24.066,-3.99402 L 23.7303,-5.30081 L 23.3009,-6.58669
 L 22.7795,-7.84657 L 22.1683,-9.07549 L 21.4695,-10.2686 L 20.686,-11.4211 L 19.8209,-12.5286 L 18.8776,-13.5867
 L 17.8597,-14.5911 L 16.7714,-15.538 L 15.6169,-16.4235 L 14.4007,-17.2442 L 13.1277,-17.9968 L 11.803,-18.6785
 L 10.5786,-19.2212 L 11.4118,-19.0232 L 13.1992,-18.5128 L 14.9344,-17.9292 L 16.6106,-17.2749 L 18.2213,-16.5525
 L 19.7601,-15.7647 L 21.2209,-14.9147 L 22.598,-14.0058 L 23.8859,-13.0417 L 25.0795,-12.0261 L 26.1742,-10.963
 L 27.1655,-9.85667 L 28.0496,-8.71144 L 28.8231,-7.53181 L 29.4827,-6.32248 L 30.0261,-5.08818 L 30.4509,-3.83382
 L 30.7556,-2.56432 L 30.9388,-1.28468 L 30.9524,-1 z
M 21.4695,10.2686 L 22.1683,9.07549 L 22.7795,7.84657 L 23.3009,6.58669 L 23.7303,5.30081 L 24.066,3.99402
 L 24.3068,2.67146 L 24.4516,1.33838 L 24.4639,1 L 30.9524,1 L 30.9388,1.28468 L 30.7556,2.56432
 L 30.4509,3.83382 L 30.0261,5.08818 L 29.4827,6.32248 L 28.8231,7.53181 L 28.0496,8.71144 L 27.6069,9.2849
 L 27.5,9.26796 L 27.191,9.31689 L 27.1082,9.35907 L 27,9.34193 L 26.691,9.39087 L 26.5961,9.43921
 L 26.5,9.42398 L 26.191,9.47293 L 26.0846,9.52713 L 26,9.51372 L 25.691,9.56267 L 25.5738,9.62238
 L 25.5,9.61069 L 25.191,9.65964 L 25.0636,9.72452 L 25,9.71443 L 24.691,9.76338 L 24.5543,9.83302
 L 24.5,9.82443 L 24.191,9.87338 L 24.0457,9.9474 L 24,9.94017 L 23.691,9.98911 L 23.5379,10.0671
 L 23.5,10.0611 L 23.191,10.11 L 23.0311,10.1915 L 23,10.1865 L 22.691,10.2355 L 22.5252,10.3199
 L 22.5,10.316 L 22.191,10.3649 L 22.0202,10.4519 L 22,10.4487 L 21.691,10.4977 L 21.5162,10.5867
 L 21.5,10.5842 L 21.2254,10.6277 z
M -26.1742,10.963 L -27.1655,9.85667 L -28.0496,8.71144 L -28.8231,7.53181 L -29.4827,6.32248 L -30.0261,5.08818
 L -30.4509,3.83382 L -30.7556,2.56432 L -30.9388,1.28468 L -30.9524,1 L -24.4639,1 L -24.4516,1.33838
 L -24.3068,2.67146 L -24.066,3.99402 L -23.7303,5.30081 L -23.3009,6.58669 L -22.7795,7.84657 L -22.1683,9.07549
 L -21.5833,10.0743 L -21.809,10.11 L -21.9689,10.1915 L -22,10.1865 L -22.309,10.2355 L -22.4748,10.3199
 L -22.5,10.316 L -22.809,10.3649 L -22.9798,10.4519 L -23,10.4487 L -23.309,10.4977 L -23.4838,10.5867
 L -23.5,10.5842 L -23.809,10.6331 L -23.9869,10.7237 L -24,10.7217 L -24.309,10.7706 L -24.4889,10.8622
 L -24.5,10.8605 L -24.809,10.9094 L -24.9899,11.0016 L -25,11 L -25.309,11.049 L -25.4899,11.1411
 L -25.5,11.1395 L -25.809,11.1885 L -25.8962,11.2329 z
M -1.9465,20.4196 L -3.88533,20.2987 L -5.80881,20.0976 L -7.70938,19.8172 L -9.57951,19.4586 L -11.4118,19.0232
 L -13.1992,18.5128 L -14.9344,17.9292 L -16.6106,17.2749 L -18.2213,16.5525 L -19.7601,15.7647 L -21.2209,14.9147
 L -22.598,14.0058 L -23.8859,13.0417 L -24.1694,12.8005 L -24.0111,12.7199 L -24,12.7216 L -23.691,12.6727
 L -23.5131,12.5821 L -23.5,12.5842 L -23.191,12.5352 L -23.0162,12.4462 L -23,12.4487 L -22.691,12.3998
 L -22.5202,12.3127 L -22.5,12.3159 L -22.191,12.267 L -22.0252,12.1825 L -22,12.1865 L -21.691,12.1376
 L -21.5311,12.0561 L -21.5,12.0611 L -21.191,12.0121 L -21.038,11.9342 L -21,11.9402 L -20.691,11.8912
 L -20.5457,11.8172 L -20.5,11.8244 L -20.191,11.7755 L -20.0543,11.7058 L -20,11.7144 L -19.691,11.6655
 L -19.5637,11.6006 L -19.5,11.6107 L -19.191,11.5618 L -19.0738,11.502 L -19,11.5137 L -18.691,11.4648
 L -18.5846,11.4106 L -18.5,11.424 L -18.191,11.375 L -18.0961,11.3267 L -18,11.3419 L -17.691,11.293
 L -17.6082,11.2508 L -17.5,11.268 L -17.191,11.219 L -17.1209,11.1833 L -17,11.2024 L -16.691,11.1535
 L -16.634,11.1244 L -16.5,11.1456 L -16.191,11.0967 L -16.1475,11.0745 L -16,11.0979 L -15.691,11.049
 L -15.6614,11.0339 L -15.5,11.0594 L -15.191,11.0105 L -15.1755,11.0026 L -15,11.0304 L -14.691,10.9814
 L -14.6899,10.9809 L -14.5,11.011 L -14.2193,10.9665 L -14,11.0012 L -13.75,10.9616 L -13.5,11.0012
 L -13.2807,10.9665 L -13,11.011 L -12.8101,10.9809 L -12.809,10.9814 L -12.5,11.0304 L -12.3245,11.0026
 L -12.309,11.0105 L -12,11.0594 L -11.8386,11.0339 L -11.809,11.049 L -11.5,11.0979 L -11.3525,11.0745
 L -11.309,11.0967 L -11,11.1456 L -10.866,11.1244 L -10.809,11.1535 L -10.5,11.2024 L -10.3792,11.1833
 L -10.309,11.219 L -10,11.268 L -9.89178,11.2508 L -9.80902,11.293 L -9.5,11.3419 L -9.40388,11.3267
 L -9.30902,11.375 L -9,11.424 L -8.91537,11.4106 L -8.80902,11.4648 L -8.5,11.5137 L -8.42622,11.502
 L -8.30902,11.5618 L -8,11.6107 L -7.93636,11.6006 L -7.80902,11.6655 L -7.5,11.7144 L -7.44574,11.7058
 L -7.30902,11.7755 L -7,11.8244 L -6.95432,11.8172 L -6.80902,11.8912 L -6.5,11.9402 L -6.46204,11.9342
 L -6.30902,12.0121 L -6,12.0611 L -5.96889,12.0561 L -5.80902,12.1376 L -5.5,12.1865 L -5.47482,12.1825
 L -5.30902,12.267 L -5,12.3159 L -4.97983,12.3128 L -4.80902,12.3998 L -4.5,12.4487 L -4.48384,12.4462
 L -4.30902,12.5352 L -4,12.5842 L -3.98688,12.5821 L -3.80902,12.6727 L -3.5,12.7216 L -3.48889,12.7199
 L -3.30902,12.8115 L -3,12.8605 L -2.98991,12.8589 L -2.80902,12.951 L -2.5,13 L -2.4899,12.9984
 L -2.30902,13.0906 L -2,13.1395 L -1.98889,13.1378 L -1.80902,13.2294 L -1.5,13.2783 L -1.48688,13.2763
 L -1.30902,13.3669 L -1,13.4158 L -0.983841,13.4133 L -0.809021,13.5023 L -0.5,13.5513 L -0.479813,13.5481
 L -0.309021,13.6351 L 0,13.684 L 0.025177,13.6801 L 0.190979,13.7645 L 0.5,13.8135 L 0.531097,13.8085
 L 0.690979,13.89 L 1,13.9389 L 1.03795,13.9329 L 1.19098,14.0109 L 1.5,14.0598 L 1.5457,14.0526
 L 1.69098,14.1266 L 2,14.1756 L 2.05428,14.167 L 2.19098,14.2366 L 2.5,14.2856 L 2.56364,14.2755
 L 2.69098,14.3404 L 3,14.3893 L 3.07378,14.3776 L 3.19098,14.4373 L 3.5,14.4863 L 3.58463,14.4729
 L 3.69098,14.5271 L 4,14.576 L 4.09612,14.5608 L 4.19098,14.6091 L 4.5,14.6581 L 4.6082,14.6409
 L 4.69098,14.6831 L 5,14.732 L 5.12083,14.7129 L 5.19098,14.7486 L 5.5,14.7976 L 5.63396,14.7764
 L 5.69098,14.8054 L 6,14.8544 L 6.14748,14.831 L 6.19098,14.8532 L 6.5,14.9021 L 6.66135,14.8765
 L 6.69098,14.8916 L 7,14.9406 L 7.17551,14.9128 L 7.19098,14.9207 L 7.5,14.9696 L 7.68988,14.9395
 L 7.69098,14.9401 L 8,14.989 L 8.21925,14.9543 L 8.5,14.9988 L 8.75,14.9592 L 9,14.9988
 L 9.28073,14.9543 L 9.5,14.989 L 9.80901,14.9401 L 9.8101,14.9395 L 10,14.9696 L 10.309,14.9207
 L 10.3245,14.9128 L 10.5,14.9406 L 10.809,14.8916 L 10.8386,14.8765 L 11,14.9021 L 11.309,14.8532
 L 11.3525,14.831 L 11.5,14.8544 L 11.809,14.8054 L 11.866,14.7764 L 12,14.7976 L 12.309,14.7486
 L 12.3792,14.7129 L 12.5,14.732 L 12.809,14.6831 L 12.8918,14.6409 L 13,14.6581 L 13.309,14.6091
 L 13.4039,14.5608 L 13.5,14.576 L 13.809,14.5271 L 13.9154,14.4729 L 14,14.4863 L 14.309,14.4373
 L 14.4262,14.3776 L 14.5,14.3893 L 14.809,14.3404 L 14.9363,14.2755 L 15,14.2856 L 15.309,14.2366
 L 15.4457,14.167 L 15.5,14.1756 L 15.809,14.1266 L 15.9543,14.0526 L 16,14.0598 L 16.309,14.0109
 L 16.462,13.9329 L 16.5,13.9389 L 16.809,13.89 L 16.9689,13.8085 L 17,13.8135 L 17.309,13.7645
 L 17.4748,13.68 L 17.5,13.684 L 17.809,13.6351 L 17.9798,13.5481 L 18,13.5513 L 18.309,13.5023
 L 18.4838,13.4133 L 18.5,13.4158 L 18.809,13.3669 L 18.9869,13.2763 L 19,13.2783 L 19.309,13.2294
 L 19.4889,13.1378 L 19.5,13.1395 L 19.809,13.0906 L 19.9899,12.9984 L 20,13 L 20.309,12.951
 L 20.4899,12.8589 L 20.5,12.8605 L 20.809,12.8115 L 20.9889,12.7199 L 21,12.7216 L 21.309,12.6727
 L 21.4869,12.5821 L 21.5,12.5842 L 21.809,12.5352 L 21.9838,12.4462 L 22,12.4487 L 22.309,12.3998
 L 22.4798,12.3127 L 22.5,12.3159 L 22.809,12.267 L 22.9748,12.1825 L 23,12.1865 L 23.309,12.1376
 L 23.4689,12.0561 L 23.5,12.0611 L 23.809,12.0121 L 23.962,11.9342 L 24,11.9402 L 24.309,11.8912
 L 24.4543,11.8172 L 24.5,11.8244 L 24.809,11.7755 L 24.9457,11.7058 L 25,11.7144 L 25.309,11.6655
 L 25.4363,11.6006 L 25.5,11.6107 L 25.5087,11.6093 L 25.0795,12.0261 L 23.8859,13.0417 L 22.598,14.0058
 L 21.2209,14.9147 L 19.7601,15.7647 L 18.2213,16.5525 L 16.6106,17.2749 L 14.9344,17.9292 L 13.1992,18.5128
 L 11.4118,19.0232 L 9.57951,19.4586 L 7.70938,19.8172 L 5.80881,20.0976 L 3.88533,20.2987 L 1.9465,20.4196
 L 0,20.46 z
M -39.8367,-5.40512 L -39.6741,-5.4205 L -39.5128,-5.44604 L -39.3534,-5.48167 L -39.1965,-5.52725 L -39.0429,-5.58258
 L -38.893,-5.64745 L -38.7474,-5.72159 L -38.6068,-5.80473 L -38.4718,-5.89655 L -38.3427,-5.99666 L -38.2202,-6.10468
 L -38.1047,-6.22017 L -37.9967,-6.3427 L -37.8965,-6.47176 L -37.8047,-6.60684 L -37.7216,-6.74744 L -37.6474,-6.89296
 L -37.5826,-7.04286 L -37.5273,-7.19655 L -37.4817,-7.35339 L -37.446,-7.5128 L -37.4205,-7.67413 L -37.4051,-7.83673
 L -37.4,-8 L -37.4051,-8.16325 L -37.4205,-8.32585 L -37.446,-8.48718 L -37.4817,-8.64659 L -37.5273,-8.80344
 L -37.5826,-8.95712 L -37.6474,-9.10703 L -37.7216,-9.25255 L -37.8047,-9.39314 L -37.8965,-9.52823 L -37.9967,-9.65729
 L -38.1047,-9.77982 L -38.2202,-9.89531 L -38.3427,-10.0033 L -38.4718,-10.1034 L -38.6068,-10.1953 L -38.7474,-10.2784
 L -38.893,-10.3525 L -39.0429,-10.4174 L -39.1965,-10.4727 L -39.3534,-10.5183 L -39.5128,-10.5539 L -39.6741,-10.5795
 L -39.8367,-10.5949 L -40,-10.6 L -40.1633,-10.5949 L -40.3259,-10.5795 L -40.4872,-10.5539 L -40.6466,-10.5183
 L -40.8034,-10.4727 L -40.9571,-10.4174 L -41.107,-10.3525 L -41.2525,-10.2784 L -41.3931,-10.1953 L -41.5282,-10.1034
 L -41.6573,-10.0033 L -41.7798,-9.89531 L -41.8953,-9.77982 L -42.0033,-9.65729 L -42.1034,-9.52823 L -42.1953,-9.39314
 L -42.2784,-9.25255 L -42.3525,-9.10703 L -42.4174,-8.95712 L -42.4727,-8.80344 L -42.5183,-8.64659 L -42.5539,-8.48718
 L -42.5795,-8.32585 L -42.5949,-8.16325 L -42.6,-8 L -42.5949,-7.83673 L -42.5795,-7.67413 L -42.5539,-7.5128
 L -42.5183,-7.35339 L -42.4727,-7.19655 L -42.4174,-7.04286 L -42.3525,-6.89296 L -42.2784,-6.74744 L -42.1953,-6.60684
 L -42.1034,-6.47176 L -42.0033,-6.3427 L -41.8953,-6.22017 L -41.7798,-6.10468 L -41.6573,-5.99666 L -41.5282,-5.89655
 L -41.3931,-5.80473 L -41.2525,-5.72159 L -41.107,-5.64745 L -40.9571,-5.58258 L -40.8034,-5.52725 L -40.6466,-5.48167
 L -40.4872,-5.44604 L -40.3259,-5.4205 L -40.1633,-5.40512 L -40,-5.39999 z
M 40.1633,-5.40512 L 40.3259,-5.4205 L 40.4872,-5.44604 L 40.6466,-5.48167 L 40.8034,-5.52725 L 40.9571,-5.58258
 L 41.107,-5.64745 L 41.2525,-5.72159 L 41.3931,-5.80473 L 41.5282,-5.89655 L 41.6573,-5.99666 L 41.7798,-6.10468
 L 41.8953,-6.22017 L 42.0033,-6.3427 L 42.1034,-6.47176 L 42.1953,-6.60684 L 42.2784,-6.74744 L 42.3525,-6.89296
 L 42.4174,-7.04286 L 42.4727,-7.19655 L 42.5183,-7.35339 L 42.5539,-7.5128 L 42.5795,-7.67413 L 42.5949,-7.83673
 L 42.6,-8 L 42.5949,-8.16325 L 42.5795,-8.32585 L 42.5539,-8.48718 L 42.5183,-8.64659 L 42.4727,-8.80344
 L 42.4174,-8.95712 L 42.3525,-9.10703 L 42.2784,-9.25255 L 42.1953,-9.39314 L 42.1034,-9.52823 L 42.0033,-9.65729
 L 41.8953,-9.77982 L 41.7798,-9.89531 L 41.6573,-10.0033 L 41.5282,-10.1034 L 41.3931,-10.1953 L 41.2525,-10.2784
 L 41.107,-10.3525 L 40.9571,-10.4174 L 40.8034,-10.4727 L 40.6466,-10.5183 L 40.4872,-10.5539 L 40.3259,-10.5795
 L 40.1633,-10.5949 L 40,-10.6 L 39.8367,-10.5949 L 39.6741,-10.5795 L 39.5128,-10.5539 L 39.3534,-10.5183
 L 39.1965,-10.4727 L 39.0429,-10.4174 L 38.893,-10.3525 L 38.7474,-10.2784 L 38.6068,-10.1953 L 38.4718,-10.1034
 L 38.3427,-10.0033 L 38.2202,-9.89531 L 38.1047,-9.77982 L 37.9967,-9.65729 L 37.8965,-9.52823 L 37.8047,-9.39314
 L 37.7216,-9.25255 L 37.6474,-9.10703 L 37.5826,-8.95712 L 37.5273,-8.80344 L 37.4817,-8.64659 L 37.446,-8.48718
 L 37.4205,-8.32585 L 37.4051,-8.16325 L 37.4,-8 L 37.4051,-7.83673 L 37.4205,-7.67413 L 37.446,-7.5128
 L 37.4817,-7.35339 L 37.5273,-7.19655 L 37.5826,-7.04286 L 37.6474,-6.89296 L 37.7216,-6.74744 L 37.8047,-6.60684
 L 37.8965,-6.47176 L 37.9967,-6.3427 L 38.1047,-6.22017 L 38.2202,-6.10468 L 38.3427,-5.99666 L 38.4718,-5.89655
 L 38.6068,-5.80473 L 38.7474,-5.72159 L 38.893,-5.64745 L 39.0429,-5.58258 L 39.1965,-5.52725 L 39.3534,-5.48167
 L 39.5128,-5.44604 L 39.6741,-5.4205 L 39.8367,-5.40512 L 40,-5.39999 z
M 45.5043,4.82945 L 43.4685,3.77724 L 40.8652,0.846375 L 40.3257,1.89017 L 42.1091,3.70306 L 39.5948,3.30414
 L 39.0515,4.35535 L 42.9777,4.7993 L 44.9839,5.83624 z
M -39.5806,3.33163 L -40.2579,2.02135 L -46.2056,3.47261 L -45.6431,4.56087 L -44.2282,4.17665 L -43.6198,5.35368
 L -44.7516,6.28575 L -44.1929,7.36659 z
M -43.2669,3.87674 L -41.7075,3.42723 L -41.4286,3.34756 L -41.1674,3.26534 L -40.9239,3.18051 L -40.6982,3.09319
 L -40.8994,3.23705 L -41.1117,3.39131 L -41.3349,3.55597 L -41.5693,3.73102 L -42.8192,4.74287 z
M -41.0626,9.99458 L -40.5138,9.8736 L -39.9324,9.64139 L -39.3186,9.29797 L -38.7851,8.91631 L -38.3602,8.5159
 L -38.044,8.09677 L -37.8364,7.65889 L -37.7391,7.20949 L -37.7537,6.75572 L -37.8801,6.29762 L -38.1184,5.83514
 L -38.912,4.582 L -43.9388,7.76546 L -43.1898,8.9482 L -42.86,9.37589 L -42.4816,9.69447 L -42.0546,9.90398
 L -41.5789,10.0043 z
M -41.7147,8.88264 L -41.9573,8.79156 L -42.1689,8.63271 L -42.3494,8.4061 L -42.4831,8.19493 L -39.139,6.07712
 L -38.9652,6.35164 L -38.8494,6.58844 L -38.8009,6.82713 L -38.8196,7.0677 L -38.9056,7.31018 L -39.063,7.55659
 L -39.2962,7.80902 L -39.605,8.0675 L -39.9895,8.33199 L -40.4076,8.5752 L -40.7889,8.75194 L -41.1334,8.8622
 L -41.441,8.90598 z
M 43.3306,8.72586 L 39.1416,6.073 L 39.7301,5.14371 L 38.8923,4.61313 L 37.1089,7.42923 L 37.9467,7.95982
 L 38.5397,7.02342 L 42.7287,9.67628 z
M -34.4057,11.0189 L -35.1238,10.0783 L -38.2331,11.5399 L -38.325,11.5835 L -38.4229,11.6311 L -38.527,11.6828
 L -38.6372,11.7384 L -38.7498,11.7961 L -38.8608,11.854 L -38.9704,11.9122 L -39.0786,11.9705 L -39.1826,12.0273
 L -39.2799,12.081 L -39.3705,12.1315 L -39.4543,12.1787 L -39.3842,12.1131 L -39.3094,12.0406 L -39.2301,11.9613
 L -39.1461,11.8753 L -39.0598,11.7852 L -38.9738,11.694 L -38.8881,11.6016 L -38.8025,11.5081 L -38.7202,11.4168
 L -38.6442,11.331 L -38.5746,11.2506 L -38.5112,11.1757 L -36.2767,8.5681 L -36.9998,7.62091 L -40.8341,12.4039
 L -40.0351,13.4504 z
M 41.1645,11.9711 L 40.6743,11.5969 L 40.1551,11.8925 L 36.777,9.31355 L 36.9253,8.73479 L 36.4352,8.36058
 L 35.0749,10.1423 L 35.5651,10.5166 L 36.0843,10.221 L 39.4623,12.7999 L 39.3141,13.3787 L 39.8042,13.7529
 z
M -32.6893,12.8719 L -33.6833,11.7823 L -39.0507,14.7272 L -38.2251,15.6322 L -36.9584,14.894 L -36.0654,15.8728
 L -36.9165,17.0667 L -36.0965,17.9655 z
M -36.1078,14.3549 L -34.7185,13.5162 L -34.4698,13.3668 L -34.2389,13.2196 L -34.0258,13.0746 L -33.8305,12.9316
 L -33.9874,13.1228 L -34.1524,13.3268 L -34.3253,13.5438 L -34.5062,13.7737 L -35.4507,15.0752 z
M 38.6908,15.1217 L 37.9582,14.4533 L 36.8911,15.6231 L 33.228,12.2814 L 32.4586,13.1248 L 36.8543,17.1348
 z
M -28.8782,16.5196 L -29.6694,15.7917 L -31.5031,17.7849 L -31.5931,17.8843 L -31.6883,17.9924 L -31.7887,18.1092
 L -31.8942,18.2347 L -32.0053,18.3685 L -32.1223,18.5103 L -32.2452,18.6601 L -32.3741,18.8179 L -32.3987,18.7953
 L -30.9266,14.6351 L -31.9078,13.7324 L -35.9363,18.1112 L -35.1513,18.8334 L -33.2837,16.8035 L -33.193,16.7036
 L -33.0956,16.5943 L -32.9917,16.4756 L -32.8811,16.3473 L -32.765,16.2092 L -32.6446,16.061 L -32.5198,15.9026
 L -32.3906,15.7341 L -32.3661,15.7567 L -33.8941,19.99 L -32.9067,20.8984 z
M 35.3176,18.6804 L 34.9,18.2266 L 34.3372,18.4273 L 31.4598,15.2996 L 31.7066,14.7555 L 31.2891,14.3016
 L 29.6394,15.8193 L 30.0569,16.2732 L 30.6196,16.0725 L 33.4971,19.2002 L 33.2503,19.7443 L 33.6678,20.1982
 z
M 30.679,22.4801 L 31.1014,22.3432 L 31.5085,22.0924 L 31.754,21.8803 L 31.9625,21.6508 L 32.1338,21.4038
 L 32.2681,21.1394 L 31.6477,20.3338 L 31.5907,20.4586 L 31.5296,20.58 L 31.4646,20.6978 L 31.3955,20.8121
 L 31.3197,20.9211 L 31.2344,21.0229 L 31.1397,21.1176 L 31.0355,21.205 L 30.8193,21.3298 L 30.5867,21.3837
 L 30.3376,21.3668 L 30.0722,21.279 L 29.7949,21.1221 L 29.5104,20.8978 L 29.2187,20.6061 L 28.9197,20.2469
 L 28.745,20.0085 L 28.5918,19.7751 L 28.4603,19.5467 L 28.3505,19.3233 L 28.2648,19.1079 L 28.2059,18.9035
 L 28.1738,18.7099 L 28.1686,18.5272 L 28.193,18.3588 L 28.2501,18.208 L 28.3399,18.0748 L 28.4622,17.9592
 L 28.5662,17.886 L 28.6736,17.8241 L 28.7844,17.7733 L 28.8985,17.7337 L 29.0163,17.7031 L 29.1381,17.6794
 L 29.2637,17.6625 L 29.3934,17.6524 L 29.0763,16.708 L 28.7317,16.7709 L 28.4034,16.8791 L 28.0916,17.0324
 L 27.7962,17.231 L 27.5509,17.4511 L 27.3565,17.6946 L 27.2128,17.9613 L 27.12,18.2514 L 27.075,18.5592
 L 27.0749,18.8791 L 27.1196,19.2112 L 27.2092,19.5554 L 27.3411,19.906 L 27.5131,20.2574 L 27.7251,20.6095
 L 27.9772,20.9624 L 28.424,21.4863 L 28.8748,21.9026 L 29.3296,22.2115 L 29.7883,22.4127 L 30.2413,22.5033
 z
M -28.9783,22.3896 L -29.1135,22.3663 L -29.2464,22.3383 L -29.3769,22.3055 L -29.5051,22.2679 L -29.6299,22.2225
 L -29.7501,22.166 L -29.8658,22.0986 L -29.977,22.0202 L -30.1528,21.843 L -30.2643,21.6319 L -30.3116,21.3868
 L -30.2946,21.1078 L -30.2137,20.7996 L -30.0695,20.4672 L -29.8619,20.1107 L -29.5911,19.7299 L -29.4052,19.5001
 L -29.2186,19.2924 L -29.0314,19.1069 L -28.8435,18.9436 L -28.6572,18.8058 L -28.4745,18.6966 L -28.2955,18.6161
 L -28.1203,18.5644 L -27.9512,18.5451 L -27.7908,18.5617 L -27.6391,18.6145 L -27.4961,18.7032 L -27.3988,18.7851
 L -27.3114,18.8731 L -27.234,18.9672 L -27.1666,19.0675 L -27.107,19.1736 L -27.0529,19.2852 L -27.0045,19.4024
 L -26.9616,19.5251 L -26.1295,18.9773 L -26.2784,18.6602 L -26.4668,18.3705 L -26.6947,18.1082 L -26.9622,17.8733
 L -27.2377,17.6924 L -27.5227,17.5666 L -27.8173,17.4958 L -28.1215,17.4802 L -28.4305,17.5153 L -28.7399,17.5969
 L -29.0495,17.725 L -29.3594,17.8995 L -29.6647,18.1166 L -29.9605,18.3726 L -30.2468,18.6676 L -30.5236,19.0014
 L -30.9159,19.5672 L -31.2033,20.1094 L -31.3857,20.628 L -31.4631,21.1229 L -31.435,21.584 L -31.3008,22.0013
 L -31.0605,22.3747 L -30.7141,22.7042 L -30.4463,22.8874 L -30.1711,23.0303 L -29.8886,23.1329 L -29.5986,23.1951
 z
M -25.6437,24.8489 L -26.9356,24.0231 L -26.0694,22.668 L -24.8687,23.4355 L -24.3436,22.614 L -25.5443,21.8465
 L -24.7902,20.6669 L -23.4983,21.4927 L -22.9732,20.6711 L -25.2271,19.2305 L -28.4316,24.2438 L -26.1778,25.6845
 z
M 26.6458,25.3853 L 26.1337,24.0115 L 27.2501,23.2979 L 28.2818,24.3395 L 29.307,23.6843 L 24.8666,19.4609
 L 23.6238,20.2552 L 25.6137,26.045 z
M 25.1566,21.5701 L 25.0517,21.2996 L 24.9459,21.047 L 24.8391,20.8124 L 24.7315,20.5956 L 24.8932,20.7828
 L 25.0662,20.98 L 25.2507,21.1873 L 25.4464,21.4046 L 26.5685,22.5566 L 25.747,23.0817 z
M -22.405,27.2243 L -21.9431,27.0727 L -21.5012,26.8055 L -21.0869,26.4257 L -20.7003,25.9334 L -20.3412,25.3286
 L -20.0709,24.7309 L -19.9039,24.1715 L -19.8403,23.6503 L -19.8802,23.1674 L -20.0212,22.7297 L -20.2613,22.3444
 L -20.6003,22.0113 L -21.0383,21.7306 L -22.3531,21.044 L -25.1073,26.3182 L -23.8663,26.9662 L -23.3667,27.171
 L -22.8795,27.257 z
M -23.1411,26.1815 L -23.4108,26.0759 L -23.6324,25.9602 L -21.8002,22.4515 L -21.5121,22.6019 L -21.2933,22.7488
 L -21.1317,22.931 L -21.0273,23.1486 L -20.9801,23.4015 L -20.9929,23.6936 L -21.0681,24.0289 L -21.2058,24.4074
 L -21.406,24.829 L -21.6458,25.249 L -21.8872,25.593 L -22.13,25.8611 L -22.3743,26.0532 L -22.6228,26.1702
 L -22.8784,26.2129 z
M 23.5554,27.1286 L 22.4522,25.0159 L 23.7079,24.3602 L 23.2566,23.496 L 22.0009,24.1517 L 21.2525,22.7186
 L 22.5969,22.0166 L 22.1456,21.1524 L 19.7892,22.3829 L 22.5434,27.657 z
M -13.2763,25.9922 L -12.2275,26.3238 L -11.9285,25.3783 L -15.1068,24.3734 L -15.4058,25.3189 L -14.349,25.653
 L -15.8438,30.3807 L -14.7712,30.7198 z
M 15.2663,30.6261 L 15.6088,30.5424 L 16.042,30.3836 L 16.4517,30.1885 L 16.838,29.9571 L 17.2007,29.6894
 L 16.2661,26.7337 L 14.4943,27.2939 L 14.7857,28.2156 L 15.4928,27.992 L 15.9099,29.311 L 15.7889,29.3913
 L 15.6604,29.4619 L 15.5246,29.5229 L 15.3814,29.5742 L 15.1148,29.6219 L 14.8635,29.5916 L 14.6274,29.4832
 L 14.4065,29.2969 L 14.2023,29.0441 L 14.0163,28.7364 L 13.8483,28.3738 L 13.6986,27.9563 L 13.5739,27.494
 L 13.5066,27.0763 L 13.4966,26.7034 L 13.5439,26.3752 L 13.6485,26.0955 L 13.8107,25.868 L 14.0303,25.6929
 L 14.3075,25.57 L 14.5849,25.5042 L 14.8689,25.4799 L 15.1596,25.4972 L 15.4568,25.5562 L 15.4907,24.5578
 L 15.3228,24.5277 L 15.1472,24.5081 L 14.9641,24.4991 L 14.7734,24.5007 L 14.5774,24.5148 L 14.3784,24.5436
 L 14.1764,24.587 L 13.9713,24.645 L 13.6191,24.7809 L 13.3093,24.9526 L 13.0419,25.1601 L 12.817,25.4033
 L 12.6347,25.6775 L 12.4952,25.9781 L 12.3983,26.3051 L 12.3443,26.6584 L 12.3332,27.0347 L 12.3656,27.4306
 L 12.4412,27.8461 L 12.5603,28.2813 L 12.7124,28.7106 L 12.8849,29.1007 L 13.0778,29.4516 L 13.2911,29.7632
 L 13.5232,30.0318 L 13.7727,30.2533 L 14.0395,30.4279 L 14.3237,30.5554 L 14.6237,30.6326 L 14.9379,30.6562
 z
M 10.1384,31.8951 L 9.53984,29.2025 L 9.5098,29.071 L 9.47574,28.9287 L 9.43767,28.7755 L 9.39558,28.6114
 L 9.3486,28.4373 L 9.29581,28.2537 L 9.2372,28.0608 L 9.17276,27.8585 L 9.20526,27.8513 L 11.806,31.5244
 L 13.1157,31.2333 L 11.8245,25.425 L 10.7751,25.6583 L 11.3628,28.3021 L 11.393,28.4328 L 11.4273,28.5727
 L 11.4657,28.7218 L 11.5084,28.8802 L 11.5547,29.0478 L 11.6043,29.2249 L 11.6569,29.4113 L 11.7128,29.6073
 L 11.6802,29.6145 L 9.1075,26.0291 L 7.80595,26.3184 L 9.09717,32.1266 z
M -9.56006,29.3432 L -9.32829,29.2498 L -9.12201,29.1343 L -8.94122,28.9965 L -8.78589,28.8366 L -8.65366,28.6534
 L -8.54214,28.4458 L -8.45137,28.2139 L -8.38132,27.9576 L -8.33702,27.1943 L -8.57848,26.5884 L -9.1057,26.1399
 L -9.91864,25.8487 L -11.269,25.5485 L -12.5602,31.3568 L -11.4457,31.6045 L -10.9394,29.3268 L -10.6059,29.4009
 L -10.1605,31.8902 L -8.93213,32.1633 z
M -10.4919,28.5043 L -10.744,28.4482 L -10.3643,26.7399 L -10.1365,26.7906 L -9.80592,26.9163 L -9.59514,27.1201
 L -9.50409,27.4017 L -9.53282,27.7614 L -9.66872,28.1495 L -9.87387,28.4026 L -10.1483,28.5209 z
M 7.80916,32.317 L 7.72844,31.7056 L 7.15262,31.5463 L 6.59641,27.3329 L 7.11116,27.0295 L 7.03046,26.4182
 L 4.80807,26.7115 L 4.88879,27.3229 L 5.46457,27.4823 L 6.02078,31.6957 L 5.50607,31.999 L 5.58678,32.6104
 z
M -5.11391,26.6712 L -6.57619,26.4781 L -8.78416,32.1883 L -7.56969,32.3486 L -7.07642,30.9679 L -5.76285,31.1413
 L -5.64473,32.6027 L -4.43852,32.762 z
M -6.77318,30.0077 L -6.25092,28.4712 L -6.15689,28.1967 L -6.07512,27.9354 L -6.00558,27.6871 L -5.94826,27.452
 L -5.94518,27.6993 L -5.93988,27.9617 L -5.93236,28.239 L -5.92262,28.5313 L -5.80656,30.1353 z
M 1.29643,32.8982 L 1.1758,30.1425 L 1.1691,30.0078 L 1.16035,29.8617 L 1.14954,29.7042 L 1.13666,29.5354
 L 1.12071,29.3557 L 1.10068,29.1657 L 1.07655,28.9656 L 1.04832,28.7551 L 1.08159,28.7537 L 3.0031,32.8235
 L 4.34346,32.7648 L 4.08324,26.8205 L 3.00925,26.8676 L 3.1277,29.5733 L 3.13461,29.7073 L 3.14403,29.851
 L 3.15596,30.0045 L 3.17043,30.1678 L 3.18686,30.341 L 3.20479,30.524 L 3.2242,30.7168 L 3.24507,30.9194
 L 3.21173,30.9209 L 1.30258,26.9423 L -0.0294495,27.0006 L 0.230774,32.9449 z
M -1.04373,32.292 L -1.58302,32.0349 L -1.39714,27.789 L -0.837448,27.5799 L -0.810471,26.9638 L -3.04999,26.8658
 L -3.07695,27.4819 L -2.53772,27.739 L -2.72359,31.9849 L -3.28325,32.194 L -3.31021,32.8101 L -1.07071,32.9081
 z
" stroke="black" fill="lightgray" stroke-width="0.5"/>
</svg>
