<?xml version="1.0" encoding="UTF-8" standalone="no"?>
<svg
   width="418.19415pt"
   height="267.91666pt"
   viewBox="0 0 418.19415 267.91665"
   fill-rule="evenodd"
   version="1.1"
   id="svg5"
   xmlns="http://www.w3.org/2000/svg"
   xmlns:svg="http://www.w3.org/2000/svg">
  <defs
     id="defs5" />
  <g
     id="g10"
     transform="translate(-35.194177,-540.66467)">
    <path
       style="fill:none;stroke:#ff0000;stroke-width:2.83465;stroke-linecap:round;stroke-linejoin:round;stroke-dasharray:none"
       d="m 36.6115,674.623 c 0,73.158 93.0465,132.541 207.6795,132.541 114.634,0 207.68,-59.383 207.68,-132.541 0,-73.159 -93.046,-132.541 -207.68,-132.541 -114.633,0 -207.6795,59.382 -207.6795,132.541 z"
       id="path1" />
    <path
       style="fill:none;stroke:#ff0000;stroke-width:2.83465;stroke-linecap:round;stroke-linejoin:round;stroke-dasharray:none"
       d="m 94.91,674.623 c 0,16.81103 1.783533,42.13747 19.93569,64.67626 m 255.39737,6.79357 C 395.68818,721.56532 393.673,684.14207 393.673,674.623 c 0,-73.159 -66.927,-132.541 -149.382,-132.541 -82.454,0 -149.381,59.382 -149.381,132.541"
       id="path2" />
    <path
       style="fill:none;stroke:#ff0000;stroke-width:2.83465;stroke-linecap:round;stroke-linejoin:round;stroke-dasharray:none"
       d="M 156.194,674.623 H 36.6115"
       id="path3" />
    <path
       style="fill:none;stroke:#ff0000;stroke-width:2.83465;stroke-linecap:round;stroke-linejoin:round;stroke-dasharray:none"
       d="m 74.5993,751.035 c 22.2497,-6.558 57.9817,-18.367 85.6237,-19.376 27.642,-1.009 47.195,8.782 70.703,14.793 23.509,6.012 50.973,8.244 76.459,7.757 25.486,-0.488 48.993,-3.695 72.32,-10.623 23.327,-6.929 46.473,-17.578 64.629,-33.349"
       id="path4" />
    <path
       style="fill:none;stroke:#ff0000;stroke-width:3.27451;stroke-linecap:round;stroke-linejoin:round;stroke-dasharray:none"
       d="m 244.291,542.55599 v 62.34566"
       id="path5" />
    <path
       style="fill:none;stroke:#ff0000;stroke-width:2.83465;stroke-linecap:round;stroke-linejoin:round;stroke-dasharray:none"
       d="M 450.9019,674.99997 H 331.3194"
       id="path3-9" />
    <g
       id="g9">
      <g
         id="g6"
         transform="translate(13.25811)">
        <text
           xml:space="preserve"
           style="font-style:normal;font-variant:normal;font-weight:bold;font-stretch:normal;font-size:120px;font-family:Georgia;-inkscape-font-specification:'Georgia, Bold';font-variant-ligatures:normal;font-variant-caps:normal;font-variant-numeric:normal;font-variant-east-asian:normal;writing-mode:lr-tb;direction:ltr;fill:#ff0000;fill-opacity:1;stroke-width:2.83465;stroke-dasharray:none"
           x="153.7941"
           y="714.61206"
           id="text5"><tspan
             id="tspan5"
             x="153.7941"
             y="714.61206">N</tspan></text>
        <text
           xml:space="preserve"
           style="font-style:normal;font-variant:normal;font-weight:bold;font-stretch:normal;font-size:120px;font-family:Georgia;-inkscape-font-specification:'Georgia, Bold';font-variant-ligatures:normal;font-variant-caps:normal;font-variant-numeric:normal;font-variant-east-asian:normal;writing-mode:lr-tb;direction:ltr;fill:#ff0000;fill-opacity:1;stroke-width:2.83465;stroke-dasharray:none"
           x="206.3566"
           y="714.8656"
           id="text5-8"><tspan
             id="tspan6"
             x="206.3566"
             y="714.8656">D</tspan></text>
      </g>
    </g>
  </g>
</svg>
