<?xml version="1.0" standalone="no"?>
<!DOCTYPE svg PUBLIC "-//W3C//DTD SVG 1.1//EN" "http://www.w3.org/Graphics/SVG/1.1/DTD/svg11.dtd">
<svg width="80mm" height="48mm" viewBox="-40 -24 80 48" xmlns="http://www.w3.org/2000/svg" version="1.1">
<title>OpenSCAD Model</title>
<path d="
M 2.51161,23.9526 L 5.01332,23.8107 L 7.49524,23.5749 L 9.94759,23.246 L 12.3607,22.8253 L 14.725,22.3146
 L 17.0312,21.7158 L 19.2701,21.0314 L 21.4331,20.2639 L 23.5114,19.4164 L 25.4969,18.4923 L 27.3819,17.4952
 L 29.1587,16.4291 L 30.8205,15.2982 L 32.3607,14.1068 L 33.7731,12.8598 L 35.0523,11.5621 L 36.1931,10.2187
 L 37.1911,8.83498 L 38.0423,7.4164 L 38.7433,5.96855 L 39.2915,4.49715 L 39.6846,3.008 L 39.9211,1.50696
 L 40,-0 L 39.9211,-1.50696 L 39.6846,-3.008 L 39.2915,-4.49715 L 38.7433,-5.96855 L 38.0423,-7.4164
 L 37.1911,-8.83498 L 36.1931,-10.2187 L 35.0523,-11.5621 L 33.7731,-12.8598 L 32.3607,-14.1068 L 30.8205,-15.2982
 L 29.1587,-16.4291 L 27.3819,-17.4952 L 25.4969,-18.4923 L 23.5114,-19.4164 L 21.4331,-20.2639 L 19.2701,-21.0314
 L 17.0312,-21.7158 L 14.725,-22.3146 L 12.3607,-22.8253 L 9.94759,-23.246 L 7.49524,-23.5749 L 5.01332,-23.8107
 L 2.51161,-23.9526 L 0,-24 L -2.51161,-23.9526 L -5.01332,-23.8107 L -7.49524,-23.5749 L -9.94759,-23.246
 L -12.3607,-22.8253 L -14.725,-22.3146 L -17.0312,-21.7158 L -19.2701,-21.0314 L -21.4331,-20.2639 L -23.5114,-19.4164
 L -25.4969,-18.4923 L -27.3819,-17.4952 L -29.1587,-16.4291 L -30.8205,-15.2982 L -32.3607,-14.1068 L -33.7731,-12.8598
 L -35.0523,-11.5621 L -36.1931,-10.2187 L -37.1911,-8.83498 L -38.0423,-7.4164 L -38.7433,-5.96855 L -39.2915,-4.49715
 L -39.6846,-3.008 L -39.9211,-1.50696 L -40,-0 L -39.9211,1.50696 L -39.6846,3.008 L -39.2915,4.49715
 L -38.7433,5.96855 L -38.0423,7.4164 L -37.1911,8.83498 L -36.1931,10.2187 L -35.0523,11.5621 L -33.7731,12.8598
 L -32.3607,14.1068 L -30.8205,15.2982 L -29.1587,16.4291 L -27.3819,17.4952 L -25.4969,18.4923 L -23.5114,19.4164
 L -21.4331,20.2639 L -19.2701,21.0314 L -17.0312,21.7158 L -14.725,22.3146 L -12.3607,22.8253 L -9.94759,23.246
 L -7.49524,23.5749 L -5.01332,23.8107 L -2.51161,23.9526 L 0,24 z
M 11,14 L 10.759,14.0382 L 10.5,13.9971 L 10.277,14.0325 L 10,13.9886 L 9.79498,14.021
 L 9.5,13.9743 L 9.31082,14.0043 L 9.30901,14.0034 L 9,13.9544 L 8.81924,13.983 L 8.80901,13.9778
 L 8.5,13.9289 L 8.32759,13.9562 L 8.30901,13.9467 L 8,13.8978 L 7.83586,13.9238 L 7.80901,13.9101
 L 7.5,13.8611 L 7.34401,13.8858 L 7.30901,13.868 L 7,13.8191 L 6.85205,13.8425 L 6.80901,13.8206
 L 6.5,13.7716 L 6.35995,13.7938 L 6.30901,13.7679 L 6,13.7189 L 5.86771,13.7399 L 5.80901,13.71
 L 5.5,13.661 L 5.37527,13.6808 L 5.30901,13.647 L 5,13.5981 L 4.88268,13.6167 L 4.80901,13.5791
 L 4.5,13.5302 L 4.38989,13.5476 L 4.30901,13.5064 L 4,13.4574 L 3.8969,13.4738 L 3.80901,13.429
 L 3.5,13.3801 L 3.40367,13.3953 L 3.30901,13.3471 L 3,13.2981 L 2.91023,13.3123 L 2.80901,13.2608
 L 2.5,13.2118 L 2.41653,13.2251 L 2.30901,13.1703 L 2,13.1213 L 1.92259,13.1336 L 1.80901,13.0757
 L 1.5,13.0268 L 1.42836,13.0381 L 1.30901,12.9773 L 1,12.9284 L 0.933868,12.9388 L 0.809006,12.8752
 L 0.5,12.8263 L 0.439056,12.8359 L 0.309006,12.7697 L 0,12.7207 L -0.0560303,12.7296 L -0.190994,12.6608
 L -0.5,12.6119 L -0.551437,12.62 L -0.690994,12.5489 L -1,12.5 L -1.04716,12.5075 L -1.19099,12.4342
 L -1.5,12.3852 L -1.54321,12.3921 L -1.69099,12.3168 L -2,12.2679 L -2.0396,12.2741 L -2.19099,12.197
 L -2.5,12.148 L -2.53635,12.1538 L -2.69099,12.075 L -3,12.026 L -3.03343,12.0313 L -3.19099,11.9511
 L -3.5,11.9021 L -3.53084,11.907 L -3.69099,11.8254 L -4,11.7765 L -4.02864,11.781 L -4.19099,11.6983
 L -4.5,11.6493 L -4.52678,11.6536 L -4.69099,11.5699 L -5,11.521 L -5.0253,11.525 L -5.19099,11.4405
 L -5.5,11.3916 L -5.52417,11.3954 L -5.69099,11.3104 L -6,11.2615 L -6.02344,11.2652 L -6.19099,11.1798
 L -6.5,11.1309 L -6.52307,11.1345 L -6.69099,11.049 L -7,11 L -7.02307,11.0036 L -7.19099,10.9181
 L -7.5,10.8692 L -7.52342,10.8729 L -7.69099,10.7875 L -8,10.7385 L -8.02417,10.7424 L -8.19099,10.6574
 L -8.5,10.6084 L -8.52528,10.6124 L -8.69099,10.528 L -9,10.4791 L -9.02676,10.4833 L -9.19099,10.3996
 L -9.5,10.3507 L -9.52863,10.3552 L -9.69099,10.2725 L -10,10.2236 L -10.0308,10.2284 L -10.191,10.1468
 L -10.5,10.0979 L -10.5334,10.1032 L -10.691,10.0229 L -11,9.97395 L -11.0363,9.97971 L -11.191,9.90089
 L -11.5,9.85196 L -11.5396,9.85823 L -11.691,9.7811 L -12,9.73215 L -12.0432,9.739 L -12.191,9.66371
 L -12.5,9.61476 L -12.5472,9.62224 L -12.691,9.54895 L -13,9.5 L -13.0515,9.50815 L -13.191,9.43706
 L -13.5,9.38811 L -13.556,9.39699 L -13.691,9.32822 L -14,9.27928 L -14.0609,9.28893 L -14.191,9.22267
 L -14.5,9.17372 L -14.5661,9.1842 L -14.691,9.12059 L -15,9.07164 L -15.0717,9.08299 L -15.191,9.02219
 L -15.5,8.97324 L -15.5774,8.9855 L -15.691,8.92763 L -16,8.87869 L -16.0835,8.89191 L -16.191,8.83711
 L -16.5,8.78818 L -16.5898,8.8024 L -16.691,8.75082 L -17,8.70187 L -17.0963,8.71713 L -17.191,8.66888
 L -17.5,8.61995 L -17.6031,8.63628 L -17.691,8.59149 L -18,8.54256 L -18.1101,8.56 L -18.191,8.51878
 L -18.5,8.46983 L -18.6173,8.48842 L -18.691,8.45088 L -19,8.40193 L -19.1247,8.42169 L -19.191,8.38792
 L -19.5,8.33897 L -19.6323,8.35992 L -19.691,8.33003 L -20,8.28108 L -20.1401,8.30327 L -20.191,8.27731
 L -20.5,8.22836 L -20.648,8.2518 L -20.691,8.22987 L -21,8.18092 L -21.156,8.20563 L -21.191,8.18781
 L -21.5,8.13885 L -21.6641,8.16486 L -21.691,8.15117 L -22,8.10223 L -22.1724,8.12953 L -22.191,8.12006
 L -22.5,8.07112 L -22.6808,8.09975 L -22.691,8.09453 L -23,8.04558 L -23.1892,8.07555 L -23.191,8.07462
 L -23.5,8.02568 L -23.705,8.05815 L -24,8.01143 L -24.223,8.04674 L -24.5,8.00287 L -24.741,8.04103
 L -25,8 L -25.259,8.04103 L -25.5,8.00287 L -25.777,8.04674 L -26,8.01143 L -26.13,8.03203
 L -26.6296,6.92197 L -27.1203,5.57065 L -27.504,4.19733 L -27.7792,2.80745 L -27.9447,1.40649 L -27.9607,1
 L -17.5,1 L -17.5,-1 L -27.9607,-1 L -27.9447,-1.40649 L -27.7792,-2.80745 L -27.504,-4.19733
 L -27.1203,-5.57065 L -26.6296,-6.92197 L -26.0337,-8.24599 L -25.3351,-9.53745 L -24.5366,-10.7913 L -23.6412,-12.0025
 L -22.6525,-13.1664 L -21.5744,-14.2783 L -20.4111,-15.3338 L -19.1673,-16.3289 L -17.8479,-17.2595 L -16.458,-18.122
 L -15.0031,-18.9129 L -13.4891,-19.6293 L -11.9218,-20.2681 L -10.3075,-20.827 L -8.65247,-21.3037 L -6.9633,-21.6963
 L -5.24667,-22.0032 L -3.50932,-22.2234 L -1.75813,-22.3558 L -1,-22.3748 L -1,-15 L 1,-15
 L 1,-22.3748 L 1.75813,-22.3558 L 3.50932,-22.2234 L 5.24667,-22.0032 L 6.9633,-21.6963 L 8.65247,-21.3037
 L 10.3075,-20.827 L 11.9218,-20.2681 L 13.4891,-19.6293 L 15.0031,-18.9129 L 16.458,-18.122 L 17.8479,-17.2595
 L 19.1673,-16.3289 L 20.4111,-15.3338 L 21.5744,-14.2783 L 22.6525,-13.1664 L 23.6412,-12.0025 L 24.5366,-10.7913
 L 25.3351,-9.53745 L 26.0337,-8.24599 L 26.6296,-6.92197 L 27.1203,-5.57065 L 27.504,-4.19733 L 27.7792,-2.80745
 L 27.9447,-1.40649 L 27.9607,-1 L 17.5,-1 L 17.5,1 L 27.9607,1 L 27.9447,1.40649
 L 27.7792,2.80745 L 27.504,4.19733 L 27.1203,5.57065 L 26.6296,6.92197 L 26.0337,8.24599 L 25.3351,9.53745
 L 24.5366,10.7913 L 23.6412,12.0025 L 23.2874,12.4189 L 23.191,12.4342 L 23.0471,12.5075 L 23,12.5
 L 22.691,12.5489 L 22.5514,12.62 L 22.5,12.6119 L 22.191,12.6608 L 22.056,12.7296 L 22,12.7207
 L 21.691,12.7697 L 21.5609,12.8359 L 21.5,12.8263 L 21.191,12.8752 L 21.0661,12.9388 L 21,12.9284
 L 20.691,12.9773 L 20.5716,13.0381 L 20.5,13.0268 L 20.191,13.0757 L 20.0774,13.1336 L 20,13.1213
 L 19.691,13.1703 L 19.5835,13.225 L 19.5,13.2118 L 19.191,13.2608 L 19.0898,13.3123 L 19,13.2981
 L 18.691,13.3471 L 18.5963,13.3953 L 18.5,13.3801 L 18.191,13.429 L 18.1031,13.4738 L 18,13.4574
 L 17.691,13.5064 L 17.6101,13.5476 L 17.5,13.5302 L 17.191,13.5791 L 17.1173,13.6167 L 17,13.5981
 L 16.691,13.647 L 16.6247,13.6808 L 16.5,13.661 L 16.191,13.71 L 16.1323,13.7399 L 16,13.7189
 L 15.691,13.7679 L 15.64,13.7938 L 15.5,13.7716 L 15.191,13.8206 L 15.1479,13.8425 L 15,13.8191
 L 14.691,13.868 L 14.656,13.8858 L 14.5,13.8611 L 14.191,13.9101 L 14.1641,13.9238 L 14,13.8978
 L 13.691,13.9467 L 13.6724,13.9562 L 13.5,13.9289 L 13.191,13.9778 L 13.1807,13.983 L 13,13.9544
 L 12.691,14.0034 L 12.6892,14.0043 L 12.5,13.9743 L 12.205,14.021 L 12,13.9886 L 11.723,14.0325
 L 11.5,13.9971 L 11.241,14.0382 z
M -6.31203,6.32812 L -6.74957,6.32812 L -6.84467,6.32664 L -6.93767,6.3222 L -7.02858,6.3148 L -7.11739,6.30446
 L -7.2041,6.29115 L -7.28874,6.27489 L -7.37128,6.25566 L -7.45171,6.23347 L -7.53006,6.20834 L -7.60632,6.18025
 L -7.68048,6.1492 L -7.75255,6.11519 L -7.82253,6.07822 L -7.88878,6.03555 L -7.94974,5.98451 L -8.0054,5.92509
 L -8.05576,5.85728 L -8.10081,5.7811 L -8.14056,5.69652 L -8.17502,5.60356 L -8.20418,5.50223 L -8.22803,5.39252
 L -8.24658,5.27441 L -8.25983,5.14793 L -8.26778,5.01306 L -8.27043,4.86981 L -8.27043,-4.58856 L -1.0723,6.21814
 L -1.12077,6.23347 L -1.20256,6.25566 L -1.28668,6.27489 L -1.37315,6.29115 L -1.46196,6.30446 L -1.55312,6.3148
 L -1.64661,6.3222 L -1.74245,6.32664 L -1.84062,6.32812 L -2.27817,6.32812 L -2.27817,7.26562 L 4.24263,7.26562
 L 4.59383,7.26013 L 4.93593,7.24368 L 5.26889,7.21625 L 5.59274,7.17786 L 5.90747,7.12849 L 6.21307,7.06815
 L 6.50955,6.99684 L 6.79692,6.91457 L 7.07515,6.82132 L 7.34427,6.7171 L 7.60425,6.60191 L 7.85512,6.47575
 L 8.09686,6.33862 L 8.32956,6.19142 L 8.55324,6.0351 L 8.76793,5.86966 L 8.9736,5.6951 L 9.17029,5.51141
 L 9.35797,5.31862 L 9.53667,5.11668 L 9.70634,4.90564 L 9.86703,4.68549 L 10.0187,4.45619 L 10.1614,4.21779
 L 10.2951,3.97026 L 10.4198,3.71362 L 10.5353,3.44899 L 10.6416,3.1776 L 10.7387,2.89941 L 10.8266,2.61446
 L 10.9051,2.32272 L 10.9745,2.0242 L 11.0346,1.7189 L 11.0854,1.40683 L 11.127,1.08798 L 11.1594,0.762344
 L 11.1825,0.429932 L 11.1964,0.090744 L 11.201,-0.255219 L 11.1901,-0.793427 L 11.1573,-1.31192 L 11.1028,-1.81068
 L 11.0264,-2.28973 L 10.9282,-2.74905 L 10.8082,-3.18866 L 10.6664,-3.60852 L 10.5027,-4.00868 L 10.3173,-4.3891
 L 10.11,-4.7498 L 9.88084,-5.09077 L 9.62991,-5.41203 L 9.35716,-5.71356 L 9.06508,-5.99402 L 8.7561,-6.25203
 L 8.43025,-6.48761 L 8.08749,-6.70076 L 7.72784,-6.89146 L 7.3513,-7.05974 L 6.95789,-7.20557 L 6.54756,-7.32896
 L 6.12036,-7.42993 L 5.67625,-7.50845 L 5.21527,-7.56454 L 4.73738,-7.59821 L 4.24263,-7.60942 L -2.27817,-7.60942
 L -2.27817,-6.67192 L -1.84062,-6.67192 L -1.74547,-6.6705 L -1.65228,-6.66624 L -1.56107,-6.65915 L -1.47183,-6.64923
 L -1.38455,-6.63646 L -1.29926,-6.62085 L -1.21593,-6.60242 L -1.13457,-6.58115 L -1.05518,-6.55704 L -0.977753,-6.53009
 L -0.902298,-6.50031 L -0.828827,-6.46768 L -0.757324,-6.43222 L -0.689499,-6.39148 L -0.627121,-6.34297 L -0.57016,-6.28671
 L -0.518616,-6.22267 L -0.472519,-6.15086 L -0.431824,-6.0713 L -0.396561,-5.98396 L -0.36673,-5.88887 L -0.342316,-5.786
 L -0.323334,-5.67537 L -0.309769,-5.55696 L -0.301636,-5.4308 L -0.29892,-5.29688 L -0.29892,3.33623 L -7.56198,-7.60942
 L -11.6037,-7.60942 L -11.6037,-6.67192 L -11.1662,-6.67192 L -11.071,-6.6705 L -10.9778,-6.66624 L -10.8866,-6.65915
 L -10.7974,-6.64923 L -10.7101,-6.63646 L -10.6248,-6.62085 L -10.5415,-6.60242 L -10.4601,-6.58115 L -10.3807,-6.55704
 L -10.3033,-6.53009 L -10.2279,-6.50031 L -10.1544,-6.46768 L -10.0829,-6.43222 L -10.0151,-6.39148 L -9.95268,-6.34297
 L -9.89572,-6.28671 L -9.84418,-6.22267 L -9.79808,-6.15086 L -9.75739,-6.0713 L -9.72212,-5.98396 L -9.69229,-5.88887
 L -9.66788,-5.786 L -9.6489,-5.67537 L -9.63533,-5.55696 L -9.6272,-5.4308 L -9.62448,-5.29688 L -9.62448,4.86981
 L -9.6272,5.01306 L -9.63533,5.14793 L -9.6489,5.27441 L -9.66788,5.39252 L -9.69229,5.50223 L -9.72212,5.60356
 L -9.75739,5.69652 L -9.79808,5.7811 L -9.84418,5.85728 L -9.89572,5.92509 L -9.95268,5.98451 L -10.0151,6.03555
 L -10.0829,6.07822 L -10.1544,6.11519 L -10.2279,6.1492 L -10.3033,6.18025 L -10.3807,6.20834 L -10.4601,6.23347
 L -10.5415,6.25566 L -10.6248,6.27489 L -10.7101,6.29115 L -10.7974,6.30446 L -10.8866,6.3148 L -10.9778,6.3222
 L -11.071,6.32664 L -11.1662,6.32812 L -11.6037,6.32812 L -11.6037,7.26562 L -6.31203,7.26562 z
M 2.11774,6.14062 L 2.11774,-6.50526 L 3.78438,-6.50526 L 4.14279,-6.49583 L 4.48727,-6.46754 L 4.81781,-6.42039
 L 5.13445,-6.35439 L 5.43713,-6.2695 L 5.72589,-6.16577 L 6.00073,-6.04317 L 6.26164,-5.90172 L 6.50861,-5.74139
 L 6.74165,-5.56223 L 6.96077,-5.36418 L 7.16595,-5.14728 L 7.35722,-4.91151 L 7.53442,-4.65764 L 7.69745,-4.38637
 L 7.8463,-4.09772 L 7.98097,-3.79169 L 8.10147,-3.46828 L 8.20779,-3.12749 L 8.29994,-2.7693 L 8.37791,-2.39375
 L 8.44171,-2.00081 L 8.49132,-1.59048 L 8.52676,-1.16278 L 8.54803,-0.717682 L 8.55511,-0.255219 L 8.54803,0.207672
 L 8.52676,0.654053 L 8.49132,1.08391 L 8.44171,1.49725 L 8.37791,1.89407 L 8.29994,2.27438 L 8.20779,2.63817
 L 8.10147,2.98543 L 7.98097,3.31618 L 7.8463,3.6304 L 7.69745,3.92812 L 7.53442,4.2093 L 7.35722,4.47397
 L 7.16583,4.72052 L 6.96028,4.94734 L 6.74055,5.15443 L 6.50664,5.34181 L 6.25854,5.50946 L 5.99629,5.65739
 L 5.71985,5.7856 L 5.42923,5.89407 L 5.12445,5.98283 L 4.80548,6.05186 L 4.47235,6.10117 L 4.12503,6.13075
 L 3.76353,6.14062 z
M -37.9476,-1 L -37.925,-1.43161 L -37.7003,-2.85759 L -37.3269,-4.27229 L -36.8062,-5.67012 L -36.1401,-7.04558
 L -35.3315,-8.39323 L -34.3834,-9.70776 L -33.2997,-10.984 L -32.0845,-12.2168 L -30.7426,-13.4015 L -29.2795,-14.5333
 L -27.7008,-15.6077 L -26.0128,-16.6205 L -24.2221,-17.5677 L -22.3358,-18.4456 L -20.3614,-19.2507 L -18.3066,-19.9798
 L -16.1796,-20.6301 L -14.1344,-21.1611 L -14.4526,-21.0314 L -16.0748,-20.2639 L -17.6335,-19.4164 L -19.1227,-18.4923
 L -20.5364,-17.4952 L -21.869,-16.4291 L -23.1154,-15.2982 L -24.2705,-14.1068 L -25.3298,-12.8598 L -26.2892,-11.5621
 L -27.1448,-10.2187 L -27.8933,-8.83498 L -28.5317,-7.4164 L -29.0575,-5.96855 L -29.4686,-4.49715 L -29.7634,-3.008
 L -29.9408,-1.50696 L -29.9607,-1 z
M 29.9607,-1 L 29.9408,-1.50696 L 29.7634,-3.008 L 29.4686,-4.49715 L 29.0575,-5.96855 L 28.5317,-7.4164
 L 27.8933,-8.83498 L 27.1448,-10.2187 L 26.2892,-11.5621 L 25.3298,-12.8598 L 24.2705,-14.1068 L 23.1154,-15.2982
 L 21.869,-16.4291 L 20.5364,-17.4952 L 19.1227,-18.4923 L 17.6335,-19.4164 L 16.0748,-20.2639 L 14.4526,-21.0314
 L 14.1344,-21.1611 L 16.1796,-20.6301 L 18.3066,-19.9798 L 20.3614,-19.2507 L 22.3358,-18.4456 L 24.2221,-17.5677
 L 26.0128,-16.6205 L 27.7008,-15.6077 L 29.2795,-14.5333 L 30.7426,-13.4015 L 32.0845,-12.2168 L 33.2997,-10.984
 L 34.3834,-9.70776 L 35.3315,-8.39323 L 36.1401,-7.04558 L 36.8062,-5.67012 L 37.3269,-4.27229 L 37.7003,-2.85759
 L 37.925,-1.43161 L 37.9476,-1 z
M 34.4441,9.62361 L 34.191,9.66371 L 34.0432,9.739 L 34,9.73215 L 33.691,9.7811 L 33.5396,9.85823
 L 33.5,9.85196 L 33.191,9.90089 L 33.0363,9.97971 L 33,9.97395 L 32.691,10.0229 L 32.5334,10.1032
 L 32.5,10.0979 L 32.191,10.1468 L 32.0308,10.2284 L 32,10.2236 L 31.691,10.2725 L 31.5286,10.3552
 L 31.5,10.3507 L 31.191,10.3996 L 31.0268,10.4833 L 31,10.4791 L 30.691,10.528 L 30.5253,10.6124
 L 30.5,10.6084 L 30.191,10.6574 L 30.0242,10.7424 L 30,10.7385 L 29.691,10.7875 L 29.5234,10.8729
 L 29.5,10.8692 L 29.191,10.9181 L 29.0231,11.0036 L 29,11 L 28.691,11.049 L 28.5231,11.1345
 L 28.5,11.1309 L 28.191,11.1798 L 28.0234,11.2652 L 28,11.2615 L 27.691,11.3104 L 27.5242,11.3954
 L 27.5,11.3916 L 27.191,11.4405 L 27.0253,11.5249 L 27,11.521 L 26.691,11.5699 L 26.5268,11.6536
 L 26.5,11.6493 L 26.191,11.6983 L 26.187,11.7003 L 26.2892,11.5621 L 27.1448,10.2187 L 27.8933,8.83498
 L 28.5317,7.4164 L 29.0575,5.96855 L 29.4686,4.49715 L 29.7634,3.008 L 29.9408,1.50696 L 29.9607,1
 L 37.9476,1 L 37.925,1.43161 L 37.7003,2.85759 L 37.3269,4.27229 L 36.8062,5.67012 L 36.1401,7.04558
 L 35.3315,8.39323 z
M -35.3315,8.39323 L -36.1401,7.04558 L -36.8062,5.67012 L -37.3269,4.27229 L -37.7003,2.85759 L -37.925,1.43161
 L -37.9476,1 L -29.9607,1 L -29.9408,1.50696 L -29.7634,3.008 L -29.4686,4.49715 L -29.0575,5.96855
 L -28.5317,7.4164 L -28.2082,8.13521 L -28.309,8.15117 L -28.3359,8.16486 L -28.5,8.13885 L -28.809,8.18781
 L -28.844,8.20563 L -29,8.18092 L -29.309,8.22987 L -29.352,8.2518 L -29.5,8.22836 L -29.809,8.27731
 L -29.8599,8.30327 L -30,8.28108 L -30.309,8.33003 L -30.3677,8.35992 L -30.5,8.33897 L -30.809,8.38792
 L -30.8753,8.42169 L -31,8.40193 L -31.309,8.45088 L -31.3827,8.48842 L -31.5,8.46983 L -31.809,8.51878
 L -31.8899,8.56 L -32,8.54256 L -32.309,8.59149 L -32.3969,8.63628 L -32.5,8.61995 L -32.809,8.66888
 L -32.9037,8.71713 L -33,8.70187 L -33.309,8.75082 L -33.4102,8.8024 L -33.5,8.78818 L -33.809,8.83711
 L -33.9165,8.89191 L -34,8.87869 L -34.309,8.92763 L -34.4226,8.9855 L -34.5,8.97324 L -34.809,9.02219
 L -34.8594,9.04785 z
M 30.7426,13.4015 L 29.2795,14.5333 L 27.7008,15.6077 L 26.0128,16.6205 L 24.2221,17.5677 L 22.3358,18.4456
 L 20.3614,19.2507 L 18.3066,19.9798 L 16.1796,20.6301 L 13.9887,21.1989 L 11.7426,21.6841 L 9.45021,22.0837
 L 7.12048,22.3961 L 4.76265,22.6202 L 2.38603,22.755 L 0,22.8 L -2.38603,22.755 L -4.76265,22.6202
 L -7.12048,22.3961 L -9.45021,22.0837 L -11.7426,21.6841 L -13.9887,21.1989 L -16.1796,20.6301 L -18.3066,19.9798
 L -20.3614,19.2507 L -22.3358,18.4456 L -24.2221,17.5677 L -26.0128,16.6205 L -27.7008,15.6077 L -29.2795,14.5333
 L -30.7426,13.4015 L -32.0845,12.2168 L -33.2997,10.984 L -33.47,10.7834 L -33.191,10.7392 L -33.0898,10.6877
 L -33,10.7019 L -32.691,10.6529 L -32.5963,10.6047 L -32.5,10.6199 L -32.191,10.571 L -32.1031,10.5262
 L -32,10.5426 L -31.691,10.4936 L -31.6101,10.4524 L -31.5,10.4698 L -31.191,10.4209 L -31.1173,10.3833
 L -31,10.4019 L -30.691,10.353 L -30.6247,10.3192 L -30.5,10.339 L -30.191,10.29 L -30.1323,10.2601
 L -30,10.2811 L -29.691,10.2321 L -29.64,10.2062 L -29.5,10.2284 L -29.191,10.1794 L -29.1479,10.1575
 L -29,10.1809 L -28.691,10.132 L -28.656,10.1142 L -28.5,10.1389 L -28.191,10.0899 L -28.1641,10.0762
 L -28,10.1022 L -27.691,10.0533 L -27.6724,10.0438 L -27.5,10.0711 L -27.191,10.0222 L -27.1807,10.017
 L -27,10.0456 L -26.691,9.99664 L -26.6892,9.99571 L -26.5,10.0257 L -26.205,9.97896 L -26,10.0114
 L -25.723,9.96754 L -25.5,10.0029 L -25.241,9.96184 L -25,10 L -24.759,9.96184 L -24.5,10.0029
 L -24.277,9.96754 L -24,10.0114 L -23.795,9.97896 L -23.5,10.0257 L -23.3108,9.99571 L -23.309,9.99664
 L -23,10.0456 L -22.8193,10.017 L -22.809,10.0222 L -22.5,10.0711 L -22.3276,10.0438 L -22.309,10.0533
 L -22,10.1022 L -21.8359,10.0762 L -21.809,10.0899 L -21.5,10.1389 L -21.344,10.1142 L -21.309,10.132
 L -21,10.1809 L -20.8521,10.1575 L -20.809,10.1794 L -20.5,10.2284 L -20.36,10.2062 L -20.309,10.2321
 L -20,10.2811 L -19.8677,10.2601 L -19.809,10.29 L -19.5,10.339 L -19.3753,10.3192 L -19.309,10.353
 L -19,10.4019 L -18.8827,10.3833 L -18.809,10.4209 L -18.5,10.4698 L -18.3899,10.4524 L -18.309,10.4936
 L -18,10.5426 L -17.8969,10.5262 L -17.809,10.571 L -17.5,10.6199 L -17.4037,10.6047 L -17.309,10.6529
 L -17,10.7019 L -16.9102,10.6877 L -16.809,10.7392 L -16.5,10.7882 L -16.4165,10.775 L -16.309,10.8297
 L -16,10.8787 L -15.9226,10.8664 L -15.809,10.9243 L -15.5,10.9732 L -15.4284,10.9619 L -15.309,11.0227
 L -15,11.0716 L -14.9339,11.0612 L -14.809,11.1248 L -14.5,11.1737 L -14.4391,11.1641 L -14.309,11.2303
 L -14,11.2793 L -13.944,11.2704 L -13.809,11.3392 L -13.5,11.3881 L -13.4486,11.38 L -13.309,11.4511
 L -13,11.5 L -12.9529,11.4925 L -12.809,11.5658 L -12.5,11.6148 L -12.4568,11.6079 L -12.309,11.6832
 L -12,11.7321 L -11.9604,11.7259 L -11.809,11.803 L -11.5,11.852 L -11.4637,11.8462 L -11.309,11.925
 L -11,11.974 L -10.9666,11.9687 L -10.809,12.0489 L -10.5,12.0979 L -10.4692,12.093 L -10.309,12.1746
 L -10,12.2235 L -9.97137,12.219 L -9.80902,12.3017 L -9.5,12.3507 L -9.47324,12.3464 L -9.30902,12.4301
 L -9,12.479 L -8.97472,12.4751 L -8.80902,12.5595 L -8.5,12.6084 L -8.47585,12.6046 L -8.30902,12.6896
 L -8,12.7385 L -7.97658,12.7348 L -7.80902,12.8202 L -7.5,12.8691 L -7.47694,12.8655 L -7.30902,12.951
 L -7,13 L -6.97694,12.9964 L -6.80902,13.0819 L -6.5,13.1308 L -6.47659,13.1271 L -6.30902,13.2125
 L -6,13.2615 L -5.97585,13.2576 L -5.80902,13.3426 L -5.5,13.3916 L -5.47473,13.3876 L -5.30902,13.472
 L -5,13.5209 L -4.97324,13.5167 L -4.80902,13.6004 L -4.5,13.6493 L -4.47139,13.6448 L -4.30902,13.7275
 L -4,13.7764 L -3.96918,13.7716 L -3.80902,13.8532 L -3.5,13.9021 L -3.4666,13.8968 L -3.30902,13.9771
 L -3,14.026 L -2.9637,14.0203 L -2.80902,14.0991 L -2.5,14.148 L -2.4604,14.1418 L -2.30902,14.2189
 L -2,14.2679 L -1.95679,14.261 L -1.80902,14.3363 L -1.5,14.3852 L -1.45285,14.3778 L -1.30902,14.451
 L -1,14.5 L -0.948563,14.4919 L -0.809021,14.5629 L -0.5,14.6119 L -0.443985,14.603 L -0.309021,14.6718
 L 0,14.7207 L 0.0609283,14.7111 L 0.190979,14.7773 L 0.5,14.8263 L 0.566147,14.8158 L 0.690979,14.8794
 L 1,14.9284 L 1.07164,14.917 L 1.19098,14.9778 L 1.5,15.0268 L 1.57741,15.0145 L 1.69098,15.0724
 L 2,15.1213 L 2.08344,15.1081 L 2.19098,15.1629 L 2.5,15.2118 L 2.58975,15.1976 L 2.69098,15.2492
 L 3,15.2981 L 3.0963,15.2829 L 3.19098,15.3311 L 3.5,15.3801 L 3.60309,15.3637 L 3.69098,15.4085
 L 4,15.4574 L 4.11009,15.44 L 4.19098,15.4812 L 4.5,15.5302 L 4.61731,15.5116 L 4.69098,15.5491
 L 5,15.5981 L 5.12471,15.5783 L 5.19098,15.6121 L 5.5,15.661 L 5.63229,15.6401 L 5.69098,15.67
 L 6,15.7189 L 6.14005,15.6967 L 6.19098,15.7227 L 6.5,15.7716 L 6.64795,15.7482 L 6.69098,15.7701
 L 7,15.8191 L 7.15599,15.7944 L 7.19098,15.8122 L 7.5,15.8611 L 7.66412,15.8351 L 7.69098,15.8488
 L 8,15.8978 L 8.17238,15.8705 L 8.19098,15.8799 L 8.5,15.9289 L 8.68074,15.9003 L 8.69098,15.9055
 L 9,15.9544 L 9.18916,15.9245 L 9.19098,15.9254 L 9.5,15.9743 L 9.705,15.9418 L 10,15.9886
 L 10.223,15.9533 L 10.5,15.9971 L 10.741,15.959 L 11,16 L 11.259,15.959 L 11.5,15.9971
 L 11.777,15.9533 L 12,15.9886 L 12.295,15.9418 L 12.5,15.9743 L 12.809,15.9254 L 12.8108,15.9245
 L 13,15.9544 L 13.309,15.9055 L 13.3192,15.9003 L 13.5,15.9289 L 13.809,15.8799 L 13.8276,15.8705
 L 14,15.8978 L 14.309,15.8488 L 14.3359,15.8351 L 14.5,15.8611 L 14.809,15.8122 L 14.844,15.7944
 L 15,15.8191 L 15.309,15.7701 L 15.352,15.7482 L 15.5,15.7716 L 15.809,15.7227 L 15.8599,15.6967
 L 16,15.7189 L 16.309,15.67 L 16.3677,15.6401 L 16.5,15.661 L 16.809,15.6121 L 16.8753,15.5783
 L 17,15.5981 L 17.309,15.5491 L 17.3827,15.5116 L 17.5,15.5302 L 17.809,15.4812 L 17.8899,15.44
 L 18,15.4574 L 18.309,15.4085 L 18.3969,15.3637 L 18.5,15.3801 L 18.809,15.3311 L 18.9037,15.2829
 L 19,15.2981 L 19.309,15.2492 L 19.4102,15.1976 L 19.5,15.2118 L 19.809,15.1629 L 19.9165,15.1081
 L 20,15.1213 L 20.309,15.0724 L 20.4226,15.0145 L 20.5,15.0268 L 20.809,14.9778 L 20.9283,14.917
 L 21,14.9284 L 21.309,14.8794 L 21.4339,14.8158 L 21.5,14.8263 L 21.809,14.7773 L 21.9391,14.7111
 L 22,14.7207 L 22.309,14.6718 L 22.444,14.603 L 22.5,14.6119 L 22.809,14.5629 L 22.9485,14.4919
 L 23,14.5 L 23.309,14.451 L 23.4528,14.3778 L 23.5,14.3852 L 23.809,14.3363 L 23.9568,14.261
 L 24,14.2679 L 24.309,14.2189 L 24.4604,14.1418 L 24.5,14.148 L 24.809,14.0991 L 24.9637,14.0203
 L 25,14.026 L 25.309,13.9771 L 25.4666,13.8968 L 25.5,13.9021 L 25.809,13.8532 L 25.9692,13.7716
 L 26,13.7764 L 26.309,13.7275 L 26.4714,13.6448 L 26.5,13.6493 L 26.809,13.6004 L 26.9732,13.5167
 L 27,13.5209 L 27.309,13.472 L 27.4747,13.3876 L 27.5,13.3916 L 27.809,13.3426 L 27.9758,13.2576
 L 28,13.2615 L 28.309,13.2125 L 28.4766,13.1271 L 28.5,13.1308 L 28.809,13.0819 L 28.9769,12.9964
 L 29,13 L 29.309,12.951 L 29.4769,12.8655 L 29.5,12.8691 L 29.809,12.8202 L 29.9766,12.7348
 L 30,12.7385 L 30.309,12.6896 L 30.4758,12.6046 L 30.5,12.6084 L 30.809,12.5595 L 30.9747,12.475
 L 31,12.479 L 31.309,12.4301 L 31.4732,12.3464 L 31.5,12.3507 L 31.809,12.3017 L 31.9714,12.219
 L 32,12.2235 L 32.0923,12.2089 L 32.0845,12.2168 z
" stroke="black" fill="lightgray" stroke-width="0.5"/>
</svg>
